<svg width="155" height="155" viewBox="0 0 155 155" fill="none" xmlns="http://www.w3.org/2000/svg">
<circle cx="77.5" cy="77.5" r="77.5" fill="#152432"/>
<path d="M76.6227 31.3013L79.0066 35.7787C79.5426 36.605 80.1232 37.3364 80.8071 38.0175C82.8121 39.9975 84.6811 42.1108 86.4011 44.3429C90.4403 49.6466 93.1648 55.5365 95.1104 61.9066C96.2772 65.7979 96.9109 69.7896 96.9584 73.8261C97.1538 85.8934 93.0168 96.2553 84.676 104.867C83.3193 106.232 81.8536 107.485 80.2935 108.613C79.4672 108.613 79.0764 107.979 78.7358 107.396C78.1157 106.314 77.7029 105.126 77.5188 103.893C77.2257 102.433 77.0331 100.973 77.128 99.4654V98.7843C77.061 98.6392 76.3324 31.6446 76.6227 31.3013Z" fill="#599636"/>
<path d="M76.623 31.1532C76.5253 30.9578 76.4276 31.1057 76.3299 31.2006C76.3773 32.1776 76.0368 33.0486 75.5036 33.8804C74.9174 34.7067 74.1414 35.3403 73.3626 36.0214C69.0359 39.7675 65.6303 44.2925 62.9031 49.3533C59.2742 56.1645 57.4039 63.4641 56.8736 71.1489C56.6307 73.9208 57.7501 83.702 58.6238 86.5242C61.0077 94.0164 65.2897 100.294 70.8363 105.743C72.1986 107.055 73.6557 108.272 75.1631 109.442C75.6013 109.442 75.6488 109.051 75.7493 108.761C75.9414 108.14 76.0879 107.505 76.1875 106.863L77.1645 99.5658L76.623 31.1532Z" fill="#6CAC48"/>
<path d="M79.0079 111.578C79.1056 110.461 79.6415 109.534 80.2249 108.61C79.6387 108.367 79.2033 107.884 78.8627 107.346C78.5691 106.836 78.326 106.298 78.1369 105.741C77.4558 103.697 77.3107 101.553 77.1153 99.4655V98.2009C76.8724 98.3963 76.8222 100.049 76.8222 100.295C76.6801 102.501 76.3873 104.696 75.9457 106.863C75.8005 107.739 75.7028 108.613 75.1641 109.392C75.1641 109.49 75.1641 109.587 75.2115 109.732C76.088 112.312 76.3281 114.938 76.476 117.615V118.592C76.476 119.759 76.4286 119.514 77.3972 119.904C77.788 120.05 78.2235 120.1 78.6143 120.39C78.9074 120.39 78.9548 120.147 78.9548 119.952L78.8097 118.347V113.869C78.7622 113.088 78.9074 112.312 79.0051 111.58L79.0079 111.578Z" fill="#C2BFBF"/>
</svg>
