<svg width="155" height="155" viewBox="0 0 155 155" fill="none" xmlns="http://www.w3.org/2000/svg">
<circle cx="77.5" cy="77.5" r="77.5" fill="#152432"/>
<g clip-path="url(#clip0_843_9281)">
<path d="M39.3086 57.9512V87.8292L44.4253 84.9377V60.8424L39.3086 57.9512Z" fill="#949494"/>
<path d="M34.1917 84.9374V48.9561L64.5738 66.3043V72.4086L39.3088 57.9512V87.8292L34.1917 84.9374Z" fill="#EFEFEF"/>
<path d="M95.5961 48.9556V84.9372L75.1281 96.5027L70.011 93.2899L90.4794 81.7245V57.6295L64.5742 72.4081V66.3038L95.5964 48.9559L95.5961 48.9556Z" fill="#949494"/>
<path d="M90.4789 46.064L64.8939 60.521L39.3088 46.064L34.1914 48.9552L64.5738 66.3037L95.596 48.9558L90.4782 46.0643L90.4789 46.064Z" fill="#D6D6D6"/>
<path d="M85.3617 60.5212V78.8334L90.4787 81.7246V57.6304L85.3613 60.5216L85.3617 60.5212Z" fill="#EFEFEF"/>
<path d="M59.7773 93.2905L85.3624 78.8335L90.4795 81.7247L70.0112 93.2905L90.1597 104.856L110.628 93.2905L115.745 96.1817L90.1597 110.639L59.7773 93.2905Z" fill="#D6D6D6"/>
<path d="M59.7773 93.2905V99.3947L90.1597 116.743V110.639L59.7773 93.2901V93.2905ZM115.745 96.182V78.191L110.627 75.2998V93.2905L115.745 96.182Z" fill="#EFEFEF"/>
<path d="M90.1582 110.639L115.744 96.182V78.191L120.861 75.2998V99.3947L90.1585 116.743L90.1582 110.639Z" fill="#949494"/>
<path d="M120.861 75.2994L115.744 78.1906L110.627 75.2994L115.744 72.4082L120.861 75.2994Z" fill="#D6D6D6"/>
<path d="M115.744 72.4081V66.3038L120.862 63.4126V69.5165L115.744 72.4078L115.744 72.4081Z" fill="#949494"/>
<path d="M115.744 66.3041V72.4084L110.627 69.5172V63.4126L115.744 66.3041Z" fill="#EFEFEF"/>
<path d="M120.861 63.4127L115.744 66.3039L110.627 63.4127L115.744 60.5215L120.861 63.4127Z" fill="#D6D6D6"/>
</g>
<defs>
<clipPath id="clip0_843_9281">
<rect width="87" height="71" fill="white" transform="translate(34 46)"/>
</clipPath>
</defs>
</svg>
