<svg width="155" height="155" viewBox="0 0 155 155" fill="none" xmlns="http://www.w3.org/2000/svg">
<circle cx="77.5" cy="77.5" r="77.5" fill="#152432"/>
<g clip-path="url(#clip0_840_9319)">
<path d="M75.3986 35.1171C77.5737 33.8736 80.4069 33.868 82.5802 35.1171C93.5137 41.2878 104.451 47.4487 115.382 53.623C117.438 54.7798 118.814 57.0653 118.793 59.4317V96.5564C118.808 99.0207 117.297 101.361 115.128 102.491C104.23 108.628 93.3381 114.772 82.4424 120.909C80.2222 122.177 77.3322 122.079 75.1815 120.707C71.9144 118.815 68.6416 116.933 65.3742 115.043C64.7066 114.646 63.9539 114.329 63.4825 113.683C63.8992 113.122 64.6444 113.052 65.2499 112.807C66.6136 112.374 67.8662 111.678 69.119 111.004C69.4358 110.787 69.8226 110.87 70.1263 111.064C72.9201 112.664 75.6892 114.31 78.4923 115.895C79.0903 116.24 79.6958 115.782 80.2069 115.497C90.9008 109.461 101.608 103.447 112.3 97.408C112.696 97.2177 112.915 96.7977 112.883 96.3642C112.89 84.1175 112.885 71.8687 112.887 59.622C112.932 59.1302 112.647 58.6781 112.202 58.4768C101.342 52.3683 90.4878 46.2504 79.6299 40.1403C79.4417 40.0111 79.2189 39.9418 78.9906 39.9415C78.7623 39.9412 78.5393 40.0098 78.3508 40.1384C67.4928 46.2504 56.6405 52.3739 45.7826 58.4821C45.3389 58.6837 45.0412 59.1284 45.094 59.622C45.0959 71.8687 45.094 84.1175 45.094 96.3661C45.0751 96.5776 45.1217 96.7897 45.2272 96.974C45.3328 97.1583 45.4924 97.3059 45.6845 97.3968C48.582 99.0379 51.4832 100.667 54.3826 102.303C56.016 103.181 58.0215 103.703 59.8211 103.03C61.4092 102.461 62.5223 100.843 62.492 99.1584C62.507 86.9832 62.4845 74.8061 62.5033 62.6327C62.4636 62.0923 62.9769 61.6457 63.5031 61.6966C64.8953 61.6872 66.2893 61.6779 67.6815 61.7003C68.2627 61.6872 68.6626 62.2692 68.5907 62.8137C68.5851 75.066 68.6057 87.3186 68.5813 99.5709C68.5851 102.836 67.2419 106.389 64.2179 107.987C60.4925 109.915 55.8879 109.506 52.2074 107.658C49.0212 106.069 45.9807 104.195 42.851 102.493C40.6762 101.369 39.1725 99.0192 39.1878 96.5568V59.4317C39.165 57.0163 40.595 54.6893 42.7151 53.5494C53.6109 47.4078 64.5047 41.2615 75.3986 35.1171Z" fill="#8CC84B"/>
<path d="M84.9031 60.8337C89.6552 60.5282 94.7425 60.6527 99.0188 62.9909C102.33 64.7827 104.165 68.5433 104.224 72.2172C104.131 72.7127 103.612 72.9861 103.139 72.9521C101.76 72.9502 100.381 72.9708 99.0022 72.9427C98.4173 72.9652 98.0774 72.4266 98.004 71.9101C97.6078 70.1523 96.648 68.4113 94.9915 67.5635C92.4486 66.2918 89.5002 66.3558 86.7274 66.3823C84.7031 66.4897 82.5264 66.6647 80.8115 67.8537C79.4949 68.7543 79.095 70.5723 79.5649 72.0365C80.0079 73.0878 81.223 73.427 82.2171 73.7397C87.944 75.2357 94.0127 75.0868 99.6302 77.0556C101.956 77.8582 104.231 79.4185 105.027 81.8507C106.068 85.1104 105.612 89.0068 103.29 91.6237C101.407 93.7772 98.6645 94.9493 95.9291 95.5859C92.2902 96.3963 88.5139 96.4169 84.8184 96.0571C81.3436 95.6614 77.7275 94.7495 75.0449 92.3848C72.7511 90.3954 71.6307 87.2958 71.7419 84.3041C71.7685 83.7988 72.2721 83.4465 72.7567 83.488C74.1451 83.4768 75.5336 83.4731 76.922 83.4899C77.4766 83.4503 77.8878 83.929 77.9162 84.451C78.1724 86.1259 78.8026 87.8837 80.2647 88.8766C83.0866 90.695 86.6274 90.5705 89.8586 90.6213C92.5355 90.5028 95.5405 90.4669 97.725 88.6997C98.8775 87.6918 99.219 86.0054 98.9075 84.5547C98.5701 83.3298 97.2873 82.7591 96.1856 82.3859C90.5322 80.5996 84.3957 81.2478 78.7969 79.2278C76.524 78.4255 74.326 76.9086 73.4528 74.5763C72.2343 71.2754 72.7926 67.1924 75.358 64.6638C77.8593 62.1487 81.4701 61.1804 84.9031 60.8337Z" fill="#8CC84B"/>
</g>
<defs>
<clipPath id="clip0_840_9319">
<rect width="80" height="88" fill="white" transform="translate(39 34)"/>
</clipPath>
</defs>
</svg>
