<svg width="155" height="155" viewBox="0 0 155 155" fill="none" xmlns="http://www.w3.org/2000/svg">
<circle cx="77.5" cy="77.5" r="77.5" fill="#152432"/>
<g clip-path="url(#clip0_847_9265)">
<path d="M43 44H111V112H43V44Z" fill="#F0DB4F"/>
<path d="M105.435 95.7823C104.937 92.6796 102.914 90.0746 96.9221 87.6442C94.8407 86.6876 92.5202 86.0025 91.8286 84.4252C91.5829 83.5074 91.5506 82.9902 91.7057 82.4343C92.1518 80.6309 94.3042 80.0686 96.0107 80.5857C97.1096 80.9541 98.1502 81.801 98.7772 83.1518C101.712 81.2515 101.705 81.2644 103.754 79.9587C103.005 78.7952 102.604 78.2587 102.113 77.761C100.348 75.7895 97.9434 74.7747 94.0974 74.8523C93.4316 74.9363 92.7594 75.0267 92.0936 75.1108C90.1739 75.5956 88.3445 76.604 87.2715 77.9549C84.0525 81.607 84.9704 87.9997 88.8875 90.6306C92.7464 93.5264 98.4153 94.1857 99.1392 96.8941C99.8438 100.21 96.7024 101.283 93.5803 100.902C91.2791 100.423 89.9993 99.2534 88.616 97.1268C86.0693 98.6006 86.0693 98.6006 83.4514 100.107C84.072 101.464 84.7248 102.078 85.7655 103.255C90.691 108.251 103.018 108.006 105.228 100.443C105.319 100.184 105.913 98.4518 105.435 95.7823ZM79.9673 75.253H73.6069C73.6069 80.7473 73.5811 86.2028 73.5811 91.6971C73.5811 95.194 73.7621 98.4001 73.1933 99.3826C72.2625 101.315 69.8514 101.076 68.7526 100.701C67.6343 100.152 67.0655 99.3696 66.4062 98.2644C66.2252 97.9477 66.0895 97.702 66.0441 97.6826C64.3184 98.7362 62.5989 99.7963 60.873 100.85C61.7328 102.615 62.9997 104.147 64.6221 105.142C67.0461 106.596 70.3038 107.042 73.7104 106.26C75.9275 105.614 77.8407 104.276 78.8426 102.24C80.2905 99.5701 79.9803 96.3381 79.9673 92.7636C79.9997 86.9332 79.9673 81.1028 79.9673 75.253Z" fill="#323330"/>
</g>
<defs>
<clipPath id="clip0_847_9265">
<rect width="68" height="68" fill="white" transform="translate(43 44)"/>
</clipPath>
</defs>
</svg>
