<svg width="155" height="155" viewBox="0 0 155 155" fill="none" xmlns="http://www.w3.org/2000/svg">
<circle cx="77.5" cy="77.5" r="77.5" fill="#152432"/>
<path d="M34.8255 76.938H44.4455V78.576H34.8255V76.938ZM35.0335 85.336H45.9795V87H33.1095V68.8H45.5895V70.464H35.0335V85.336ZM46.6512 87L52.4232 79.512L52.3972 80.422L46.9112 73.35H48.9912L53.4892 79.2L52.7092 79.174L57.2072 73.35H59.2352L53.6972 80.5L53.7232 79.512L59.5472 87H57.4412L52.6832 80.76L53.4112 80.864L48.7312 87H46.6512ZM68.6659 87.13C67.4872 87.13 66.4212 86.8613 65.4679 86.324C64.5146 85.7693 63.7519 84.9807 63.1799 83.958C62.6252 82.918 62.3479 81.6527 62.3479 80.162C62.3479 78.6713 62.6252 77.4147 63.1799 76.392C63.7346 75.352 64.4886 74.5633 65.4419 74.026C66.3952 73.4887 67.4699 73.22 68.6659 73.22C69.9659 73.22 71.1272 73.5147 72.1499 74.104C73.1899 74.676 74.0046 75.4907 74.5939 76.548C75.1832 77.588 75.4779 78.7927 75.4779 80.162C75.4779 81.5487 75.1832 82.762 74.5939 83.802C74.0046 84.842 73.1899 85.6567 72.1499 86.246C71.1272 86.8353 69.9659 87.13 68.6659 87.13ZM61.6199 92.044V73.35H63.3879V77.458L63.2059 80.188L63.4659 82.944V92.044H61.6199ZM68.5359 85.492C69.5066 85.492 70.3732 85.2753 71.1359 84.842C71.8986 84.3913 72.5052 83.7673 72.9559 82.97C73.4066 82.1553 73.6319 81.2193 73.6319 80.162C73.6319 79.1047 73.4066 78.1773 72.9559 77.38C72.5052 76.5827 71.8986 75.9587 71.1359 75.508C70.3732 75.0573 69.5066 74.832 68.5359 74.832C67.5652 74.832 66.6899 75.0573 65.9099 75.508C65.1472 75.9587 64.5406 76.5827 64.0899 77.38C63.6566 78.1773 63.4399 79.1047 63.4399 80.162C63.4399 81.2193 63.6566 82.1553 64.0899 82.97C64.5406 83.7673 65.1472 84.3913 65.9099 84.842C66.6899 85.2753 67.5652 85.492 68.5359 85.492ZM78.241 87V73.35H80.009V77.068L79.827 76.418C80.2083 75.378 80.8497 74.5893 81.751 74.052C82.6523 73.4973 83.7703 73.22 85.105 73.22V75.014C85.0357 75.014 84.9663 75.014 84.897 75.014C84.8277 74.9967 84.7583 74.988 84.689 74.988C83.2503 74.988 82.1237 75.43 81.309 76.314C80.4943 77.1807 80.087 78.42 80.087 80.032V87H78.241ZM93.1445 87.13C91.7231 87.13 90.4751 86.8353 89.4005 86.246C88.3258 85.6393 87.4851 84.816 86.8785 83.776C86.2718 82.7187 85.9685 81.514 85.9685 80.162C85.9685 78.81 86.2545 77.614 86.8265 76.574C87.4158 75.534 88.2131 74.7193 89.2185 74.13C90.2411 73.5233 91.3851 73.22 92.6505 73.22C93.9331 73.22 95.0685 73.5147 96.0565 74.104C97.0618 74.676 97.8505 75.4907 98.4225 76.548C98.9945 77.588 99.2805 78.7927 99.2805 80.162C99.2805 80.2487 99.2718 80.344 99.2545 80.448C99.2545 80.5347 99.2545 80.63 99.2545 80.734H87.3725V79.356H98.2665L97.5385 79.902C97.5385 78.914 97.3218 78.0387 96.8885 77.276C96.4725 76.496 95.9005 75.8893 95.1725 75.456C94.4445 75.0227 93.6038 74.806 92.6505 74.806C91.7145 74.806 90.8738 75.0227 90.1285 75.456C89.3831 75.8893 88.8025 76.496 88.3865 77.276C87.9705 78.056 87.7625 78.9487 87.7625 79.954V80.24C87.7625 81.28 87.9878 82.1987 88.4385 82.996C88.9065 83.776 89.5478 84.3913 90.3625 84.842C91.1945 85.2753 92.1391 85.492 93.1965 85.492C94.0285 85.492 94.7998 85.3447 95.5105 85.05C96.2385 84.7553 96.8625 84.3047 97.3825 83.698L98.4225 84.894C97.8158 85.622 97.0531 86.1767 96.1345 86.558C95.2331 86.9393 94.2365 87.13 93.1445 87.13ZM105.704 87.13C104.577 87.13 103.511 86.974 102.506 86.662C101.501 86.3327 100.712 85.9253 100.14 85.44L100.972 83.984C101.527 84.4 102.237 84.764 103.104 85.076C103.971 85.3707 104.881 85.518 105.834 85.518C107.134 85.518 108.07 85.3187 108.642 84.92C109.214 84.504 109.5 83.958 109.5 83.282C109.5 82.7793 109.335 82.3893 109.006 82.112C108.694 81.8173 108.278 81.6007 107.758 81.462C107.238 81.306 106.657 81.176 106.016 81.072C105.375 80.968 104.733 80.8467 104.092 80.708C103.468 80.5693 102.896 80.37 102.376 80.11C101.856 79.8327 101.431 79.46 101.102 78.992C100.79 78.524 100.634 77.9 100.634 77.12C100.634 76.3747 100.842 75.7073 101.258 75.118C101.674 74.5287 102.281 74.0693 103.078 73.74C103.893 73.3933 104.881 73.22 106.042 73.22C106.926 73.22 107.81 73.3413 108.694 73.584C109.578 73.8093 110.306 74.1127 110.878 74.494L110.072 75.976C109.465 75.56 108.815 75.2653 108.122 75.092C107.429 74.9013 106.735 74.806 106.042 74.806C104.811 74.806 103.901 75.0227 103.312 75.456C102.74 75.872 102.454 76.4093 102.454 77.068C102.454 77.588 102.61 77.9953 102.922 78.29C103.251 78.5847 103.676 78.8187 104.196 78.992C104.733 79.148 105.314 79.278 105.938 79.382C106.579 79.486 107.212 79.616 107.836 79.772C108.477 79.9107 109.058 80.11 109.578 80.37C110.115 80.6127 110.54 80.968 110.852 81.436C111.181 81.8867 111.346 82.4847 111.346 83.23C111.346 84.0273 111.121 84.7207 110.67 85.31C110.237 85.882 109.595 86.3327 108.746 86.662C107.914 86.974 106.9 87.13 105.704 87.13ZM117.399 87.13C116.273 87.13 115.207 86.974 114.201 86.662C113.196 86.3327 112.407 85.9253 111.835 85.44L112.667 83.984C113.222 84.4 113.933 84.764 114.799 85.076C115.666 85.3707 116.576 85.518 117.529 85.518C118.829 85.518 119.765 85.3187 120.337 84.92C120.909 84.504 121.195 83.958 121.195 83.282C121.195 82.7793 121.031 82.3893 120.701 82.112C120.389 81.8173 119.973 81.6007 119.453 81.462C118.933 81.306 118.353 81.176 117.711 81.072C117.07 80.968 116.429 80.8467 115.787 80.708C115.163 80.5693 114.591 80.37 114.071 80.11C113.551 79.8327 113.127 79.46 112.797 78.992C112.485 78.524 112.329 77.9 112.329 77.12C112.329 76.3747 112.537 75.7073 112.953 75.118C113.369 74.5287 113.976 74.0693 114.773 73.74C115.588 73.3933 116.576 73.22 117.737 73.22C118.621 73.22 119.505 73.3413 120.389 73.584C121.273 73.8093 122.001 74.1127 122.573 74.494L121.767 75.976C121.161 75.56 120.511 75.2653 119.817 75.092C119.124 74.9013 118.431 74.806 117.737 74.806C116.507 74.806 115.597 75.0227 115.007 75.456C114.435 75.872 114.149 76.4093 114.149 77.068C114.149 77.588 114.305 77.9953 114.617 78.29C114.947 78.5847 115.371 78.8187 115.891 78.992C116.429 79.148 117.009 79.278 117.633 79.382C118.275 79.486 118.907 79.616 119.531 79.772C120.173 79.9107 120.753 80.11 121.273 80.37C121.811 80.6127 122.235 80.968 122.547 81.436C122.877 81.8867 123.041 82.4847 123.041 83.23C123.041 84.0273 122.816 84.7207 122.365 85.31C121.932 85.882 121.291 86.3327 120.441 86.662C119.609 86.974 118.595 87.13 117.399 87.13Z" fill="white"/>
</svg>
