<svg width="155" height="155" viewBox="0 0 155 155" fill="none" xmlns="http://www.w3.org/2000/svg">
<circle cx="77.5" cy="77.5" r="77.5" fill="#152432"/>
<g clip-path="url(#clip0_840_9318)">
<path d="M73.9254 31.0734C73.7235 31.0917 73.081 31.156 72.5027 31.2019C59.1659 32.4043 46.6736 39.6005 38.7615 50.6609C34.3556 56.8107 31.5377 63.7866 30.473 71.1755C30.0967 73.7547 30.0508 74.5166 30.0508 78.0137C30.0508 81.5108 30.0967 82.2727 30.473 84.8519C33.0247 102.484 45.5721 117.299 62.5896 122.788C65.637 123.77 68.8495 124.44 72.5027 124.844C73.9254 125 80.0752 125 81.4979 124.844C87.8037 124.146 93.1458 122.586 98.4144 119.897C99.2222 119.483 99.3782 119.373 99.268 119.282C99.1946 119.226 95.7526 114.61 91.6221 109.029L84.1139 98.8863L74.7056 84.9621C69.5288 77.3069 65.2698 71.047 65.2331 71.047C65.1964 71.0378 65.1597 77.2243 65.1413 84.7785C65.1138 98.0051 65.1046 98.5375 64.9394 98.8496C64.7007 99.2993 64.5171 99.4829 64.1316 99.6848C63.8379 99.8317 63.5809 99.8592 62.1949 99.8592H60.607L60.1848 99.593C59.9094 99.4186 59.7075 99.1892 59.5698 98.923L59.377 98.5099L59.3954 80.1065L59.4229 61.6938L59.7075 61.3358C59.8543 61.1431 60.1664 60.8953 60.3867 60.7759C60.763 60.5924 60.9099 60.574 62.4978 60.574C64.3703 60.574 64.6824 60.6474 65.1688 61.1798C65.3065 61.3267 70.4007 69.0001 76.4955 78.2432C82.5902 87.4862 90.9245 100.107 95.0183 106.303L102.453 117.565L102.829 117.317C106.161 115.151 109.686 112.067 112.476 108.854C118.415 102.035 122.243 93.7186 123.528 84.8519C123.904 82.2727 123.95 81.5108 123.95 78.0137C123.95 74.5166 123.904 73.7547 123.528 71.1755C120.976 53.543 108.428 38.7285 91.411 33.2396C88.4095 32.2666 85.2153 31.5966 81.6356 31.1927C80.7544 31.1009 74.6872 30.9999 73.9254 31.0734ZM93.1458 59.4725C93.5864 59.6928 93.9443 60.1151 94.0728 60.5556C94.1463 60.7943 94.1646 65.8977 94.1463 77.3987L94.1187 93.9022L91.2091 89.4413L88.2902 84.9804V72.9837C88.2902 65.2277 88.3269 60.8677 88.382 60.6566C88.5289 60.1426 88.8501 59.7387 89.2907 59.5001C89.667 59.3073 89.8047 59.289 91.2458 59.289C92.6042 59.289 92.8429 59.3073 93.1458 59.4725Z" fill="white"/>
<path d="M101.994 117.767C101.672 117.969 101.571 118.107 101.856 117.951C102.058 117.831 102.388 117.584 102.333 117.574C102.306 117.574 102.15 117.666 101.994 117.767ZM101.36 118.18C101.195 118.309 101.195 118.318 101.397 118.217C101.507 118.162 101.599 118.098 101.599 118.079C101.599 118.006 101.553 118.024 101.36 118.18ZM100.901 118.456C100.736 118.584 100.736 118.593 100.938 118.492C101.048 118.437 101.14 118.373 101.14 118.355C101.14 118.281 101.094 118.3 100.901 118.456ZM100.442 118.731C100.277 118.859 100.277 118.869 100.479 118.768C100.589 118.713 100.681 118.648 100.681 118.63C100.681 118.557 100.635 118.575 100.442 118.731ZM99.7448 119.098C99.396 119.282 99.4143 119.355 99.7631 119.181C99.9192 119.098 100.039 119.016 100.039 118.997C100.039 118.933 100.029 118.942 99.7448 119.098Z" fill="white"/>
</g>
<defs>
<clipPath id="clip0_840_9318">
<rect width="94" height="94" fill="white" transform="translate(30 31)"/>
</clipPath>
</defs>
</svg>
