<svg width="155" height="155" viewBox="0 0 155 155" fill="none" xmlns="http://www.w3.org/2000/svg">
<circle cx="77.5" cy="77.5" r="77.5" fill="#152432"/>
<g clip-path="url(#clip0_840_9325)">
<path d="M98.4384 66.766C98.4384 66.766 92.9249 84.0347 92.4757 85.4601C92.3123 83.9939 88.2691 53 88.2691 53C78.8757 53 73.8523 59.6794 71.1976 66.7253C71.1976 66.7253 64.4997 84.0347 63.9279 85.5009C63.8871 84.1568 62.9069 66.9289 62.9069 66.9289C62.3351 58.2946 54.412 53.0407 48 53.0407L55.7598 100C65.6024 99.9593 70.9117 93.3206 73.6889 86.2747C73.6889 86.2747 79.6108 71.0017 79.8559 70.3094C79.8967 70.961 84.1033 100 84.1033 100C93.9868 100 99.2961 93.7686 102.155 86.9671L116 53.0407C106.239 53.0407 101.093 59.6794 98.4384 66.766Z" fill="#464CFF"/>
</g>
<defs>
<clipPath id="clip0_840_9325">
<rect width="68" height="47" fill="white" transform="translate(48 53)"/>
</clipPath>
</defs>
</svg>
