<svg width="155" height="155" viewBox="0 0 155 155" fill="none" xmlns="http://www.w3.org/2000/svg">
<circle cx="77.5" cy="77.5" r="77.5" fill="#152432"/>
<g clip-path="url(#clip0_840_9322)">
<path d="M78.5003 94.1881C100.424 94.1881 118.196 87.3882 118.196 79C118.196 70.6119 100.424 63.812 78.5003 63.812C56.577 63.812 38.8047 70.6119 38.8047 79C38.8047 87.3882 56.577 94.1881 78.5003 94.1881Z" stroke="#00D1FF" stroke-width="5"/>
<path d="M65.3753 86.594C76.3369 105.62 91.0998 117.643 98.349 113.449C105.598 109.255 102.589 90.4316 91.6271 71.4059C80.6655 52.3803 65.9026 40.357 58.6534 44.551C51.4041 48.7451 54.4136 67.5684 65.3753 86.594Z" stroke="#00D1FF" stroke-width="5"/>
<path d="M65.3749 71.4059C54.4133 90.4315 51.4038 109.255 58.653 113.449C65.9023 117.643 80.6651 105.62 91.6268 86.5939C102.588 67.5683 105.598 48.7451 98.3487 44.551C91.0994 40.3569 76.3366 52.3803 65.3749 71.4059Z" stroke="#00D1FF" stroke-width="5"/>
<path d="M78.4994 86.4133C82.5851 86.4133 85.8972 83.0943 85.8972 79.0001C85.8972 74.9059 82.5851 71.5869 78.4994 71.5869C74.4137 71.5869 71.1016 74.9059 71.1016 79.0001C71.1016 83.0943 74.4137 86.4133 78.4994 86.4133Z" fill="#00D1FF"/>
</g>
<defs>
<clipPath id="clip0_840_9322">
<rect width="83" height="74" fill="white" transform="translate(37 42)"/>
</clipPath>
</defs>
</svg>
