<svg id="Layer_1" data-name="Layer 1" xmlns="http://www.w3.org/2000/svg" viewBox="0 0 1025.62 342.25"><defs><style>.cls-1{fill:#152432;}.cls-2{fill:#aed5ff;}.cls-3{fill:#778da9;}.cls-4{fill:#afc7dd;}</style></defs><path class="cls-1" d="M867.66,229.88l157.18,43V6l-82.6,13.06L852,38.88A.09.09,0,0,0,852,39l3.82,12.23A381.3,381.3,0,0,1,867.6,229.78h0A.08.08,0,0,0,867.66,229.88Z"/><path class="cls-1" d="M208.53,294.42.84,234.16V2.9L312.33,85.08l-48.39,101q-4.45,9.39-8.35,19l-32.84,82.71A11.79,11.79,0,0,1,208.53,294.42Z"/><path class="cls-2" d="M219.49,291.83l3-6.21,15.57-35.9,28.08.88-11.23,14.92c-7.13,8.57-17.17,19.31-26.87,24.78Z"/><path class="cls-3" d="M316.59,83.1l-2.14,4.47-43.14,90.29c-4.63,9.69-9,19.65-13.08,29.59l-16.12,39.61L241,249.81l-1.28,3.13L225.28,288.4l-.33.81a14.37,14.37,0,0,1-1,1.82,14.55,14.55,0,0,1-12.3,6.84,13.82,13.82,0,0,1-3-.32c-.34-.07-.67-.15-1-.25L0,237l.84-2.88.84-2.88,207.69,60.26c.19.06.38.1.58.15l.27.05a8.5,8.5,0,0,0,9.21-4.88l33.24-81.67c4.1-10.05,8.55-20.12,13.23-29.92l42.16-88.22L.84,6,.07,5.8,1.61,0,312.27,82Z"/><path class="cls-3" d="M1025.62,269.22l-.78,2.9-.18.67-.6,2.23L866.94,232.79h-.1l-.09,0-2.56-.7.44-2.68c.17-1,.34-2.07.5-3.1,16.42-104.34-9.83-172.09-15-184.13-.52-1.21-.83-1.86-.86-1.92l-1.48-3,3.18-1.12.33-.11C891.37,22,1019,3.83,1024.42,3.06l.42,3,.42,3-.42.06c-8,1.15-127.49,18.32-168.82,31.63,2.77,6.51,9.1,23,14,48.51C875.81,119,880.59,167,871,227.66L1024.84,269Z"/><path class="cls-3" d="M852.29,41.88l-2.19.26C828.88,44.68,674.66,63,643.76,63h-63.5a189.84,189.84,0,0,1-39.89-4.23A300,300,0,0,0,497.2,53q-4.8-.33-9.95-.53l.23-6,.94,0a316.16,316.16,0,0,1,53.21,6.43A184.57,184.57,0,0,0,580.26,57h63.5C675.25,57,842.91,37,851.27,36l.31,0Z"/><path class="cls-3" d="M868.23,226.93l-.63,2.86v0l-.66,3h-.1l-.09,0C861,231.51,733,204.31,687.8,223c-1.23.5-2.39,1-3.49,1.62l-2.79-5.31c.68-.36,1.38-.7,2.11-1,43-19.76,160.35,3.53,181.5,8l3,.63Z"/><path class="cls-3" d="M213.17,298.06a19.65,19.65,0,0,1-5.48-.76l1.68-5.76c18,5.21,45.28-29,54.28-42.6l5,3.31C267.33,254.25,238.09,298.06,213.17,298.06Z"/><polygon class="cls-3" points="297.17 249.95 296.85 255.94 294.01 255.79 267.2 254.38 267.19 254.38 263.45 254.19 260.11 254.01 239.71 252.94 237.58 252.83 237.7 250.58 237.7 250.57 237.72 250.09 237.72 250.08 237.89 246.84 238.99 246.9 242.11 247.06 294.9 249.83 297.17 249.95"/><path class="cls-4" d="M557.14,120.13a15.44,15.44,0,0,1-7.53,12.39c-19.78,11.89-43.86,1.13-59.8-12.91-24.74-21.79-35-22.81-36.1-22.86l-.81,0-.71.38c-.35.18-34.86,18.46-65.88,42.64C365.2,156.19,347,175,328.88,199c-2.34,3.11-4.29,5.68-6,7.9-5,6.53-7.67,10.13-11.86,16-1,1.44-2.19,3-3.43,4.6-4.65,6.1-10.52,13.83-12.72,22.33l-52.79-2.77,16.12-39.61c4-9.94,8.45-19.9,13.08-29.59l43.14-90.29c4.57-1.4,20.37-6.74,42.79-19.45,26.47-15,52.16-25.74,54.33-26.26,2.44-.4,14.14-5.66,19.34-8,28.34-7,68,28.28,70.07,30.13,8.87,9.5,32.18,28.48,50.2,42.76A15.64,15.64,0,0,1,557.14,120.13Z"/><path class="cls-3" d="M563.12,120.51a21.34,21.34,0,0,1-10.41,17.15c-22.57,13.56-49.34,1.89-66.87-13.55-19.47-17.15-29.19-20.57-31.76-21.22-5.6,3-36.27,19.91-64.08,41.58-20.68,16.12-38.58,34.59-56.32,58.13-2.36,3.12-4.3,5.69-6,7.91-4.91,6.49-7.61,10.06-11.75,15.87-1.07,1.52-2.27,3.09-3.54,4.76-11,14.45-18.43,26.54-5.87,39.62,4.22,4.4,8.9,6.6,13.84,6.56,6.56-.07,12.42-4,15.66-6.64.86-.83,1.57-1.48,2.08-1.94l.05,0c.4-.36.67-.59.78-.68l4.11,4.25.05.05a32.71,32.71,0,0,1-3,2.77c-7.49,7.26-27.44,28.82-20.46,46.26,1.45,3.63,3.64,5.75,6.7,6.49,10.3,2.49,28.06-10.4,34.12-15.66l.07-.06,4.67-4.06,0,.69.27,5.48c0,.55.06,1.08.11,1.61h0c.75,9.57,4,15.82,9.69,18.6,15.55,7.6,47.33-10.67,58.26-18.35l.1-.07,4.63-3.25v5.77c0,.55,0,1.09.05,1.61.32,5.24,2.27,8.85,5.92,11,16.55,9.9,63.49-10.23,84.84-21.12,1.49-.76,2.86-1.47,4.08-2.13l2.84,5.28c-.22.12-.8.43-1.7.89-11.11,5.8-70.72,35.63-93.14,22.23a17.65,17.65,0,0,1-8.43-12.52c-9.12,5.81-31,18.42-48.5,18.42a26.29,26.29,0,0,1-11.59-2.41c-6.85-3.35-11.07-9.95-12.59-19.66-7.63,5.78-23.53,16.29-35.13,13.49-5-1.21-8.68-4.61-10.87-10.09-5.7-14.25,2.54-29.77,11-40.79a23,23,0,0,1-4.67.52c-6.7.08-12.84-2.75-18.26-8.39-6.22-6.48-8.39-12.95-8.2-19.13a26.67,26.67,0,0,1,.89-6c2.2-8.5,8.07-16.23,12.72-22.33,1.24-1.62,2.41-3.16,3.43-4.6,4.19-5.88,6.91-9.48,11.86-16,1.68-2.22,3.63-4.79,6-7.9,18.07-24,36.32-42.8,57.43-59.25,31-24.18,65.53-42.46,65.88-42.64l.71-.38.81,0c1.09,0,11.36,1.07,36.1,22.86,15.94,14,40,24.8,59.8,12.91a15.44,15.44,0,0,0,7.53-12.39,15.64,15.64,0,0,0-6-13.41C533.16,92.44,509.85,73.46,501,64c-2.06-1.85-41.73-37.15-70.07-30.13-5.2,2.37-16.9,7.63-19.34,8-2.17.52-27.86,11.25-54.33,26.26-22.42,12.71-38.22,18-42.79,19.45-.78.25-1.24.37-1.34.4l-.79-2.87v0l-.79-2.9s.27-.07.74-.22c3.55-1.07,19.48-6.29,42-19.06,25.67-14.56,53.3-26.46,56.31-27,1.45-.31,10.34-4.15,18.08-7.68l.49-.17c19.93-5.12,43.68,7.61,59.26,18.42,3.34,2.31,6.31,4.54,8.78,6.48,4.59,3.6,7.47,6.23,7.91,6.63l.17.16c9,9.68,35,30.62,49.63,42.24A21.81,21.81,0,0,1,563.12,120.51Z"/><path class="cls-3" d="M409.16,204.83l-66.11,67.44-.78.8a3,3,0,0,1-4.24,0,3,3,0,0,1,0-4.24l.12-.13.05,0,66.72-68.07a3,3,0,0,1,4.28,4.2Z"/><path class="cls-3" d="M445,259.3l-79.31,56.54h0l-1.37,1a2.93,2.93,0,0,1-1.73.56,3,3,0,0,1-2.05-5.2l.07-.06.23-.18,4.47-3.19,76.21-54.33A3,3,0,0,1,445,259.3Z"/><path class="cls-3" d="M485.34,289.9l-47,30.26-1.43.92a3,3,0,0,1-3.35-5l.1-.07,4.63-3,43.76-28.19a3,3,0,1,1,3.25,5Z"/><path class="cls-3" d="M593.52,302.59l-.22-1.74,0-.35L591.2,300c-9.58-2.15-37.23-27.79-47.07-37.49l-.36-.35-.1-.05-.34-.17a22.28,22.28,0,0,0-8.6-2,18.64,18.64,0,0,0-14.37,5.68c-6.43,5.9-9.21,12.53-8.24,19.7,1.27,9.42,9,18.09,17,24.71,1.74,1.45,3.51,2.8,5.22,4a117.62,117.62,0,0,0,14,8.73c9.4,6,16.94,8,22.87,8a21.45,21.45,0,0,0,11.69-3.26c7.2-4.55,10.44-12.76,10.78-20.24A27.19,27.19,0,0,0,593.52,302.59Zm-13.81,20c-6.81,4.3-16.57,2.62-28.25-4.85l-.25-.14c-.31-.16-30.85-16-33.14-33-.7-5.21,1.39-10,6.41-14.54l.15-.14a12.48,12.48,0,0,1,9.31-3.94,17.48,17.48,0,0,1,6.37,1.26c5,4.88,33.66,32.66,47.4,38C587.92,311.33,585.63,318.83,579.71,322.57Z"/><path class="cls-4" d="M579.71,322.57c-6.81,4.3-16.57,2.62-28.25-4.85l-.25-.14c-.31-.16-30.85-16-33.14-33-.7-5.21,1.39-10,6.41-14.54l.15-.14a12.48,12.48,0,0,1,9.31-3.94,17.48,17.48,0,0,1,6.37,1.26c5,4.88,33.66,32.66,47.4,38C587.92,311.33,585.63,318.83,579.71,322.57Z"/><path class="cls-4" d="M619.07,300.8c-3.16,2.63-10.64,6-25.77.05l0-.35L591.2,300c-9.58-2.15-37.23-27.79-47.07-37.49l-.36-.35-.1-.05a15.35,15.35,0,0,1-4.88-9.35c-.56-5,1.44-10.33,6-16a7.1,7.1,0,0,1,5.45-2.57c15-1,46.29,23.85,63.68,40.74,3.62,3.52,8,11,8.94,15.39A10.77,10.77,0,0,1,619.07,300.8Z"/><path class="cls-3" d="M622.91,305.41c-2.58,2.15-7.23,4.74-14.64,4.74a44.75,44.75,0,0,1-14.58-2.75c-1.39-.48-2.83-1-4.32-1.67l2.34-5.53,1.59.65c15.13,6,22.61,2.58,25.77-.05a10.77,10.77,0,0,0,3.76-10.42c-1-4.39-5.32-11.87-8.94-15.39-17.39-16.89-48.71-41.7-63.68-40.74a7.1,7.1,0,0,0-5.45,2.57c-4.53,5.65-6.53,11-6,16a15.35,15.35,0,0,0,4.88,9.35l.2.17-3.68,4.74a20.76,20.76,0,0,1-5.46-7.07,19.9,19.9,0,0,1-1.88-6.39c-.8-6.63,1.63-13.54,7.22-20.53a13,13,0,0,1,9.76-4.81c7.52-.47,17.3,3.78,27.09,9.77,3.06,1.86,6.12,3.89,9.11,6h0a299.19,299.19,0,0,1,32,26.64,46.61,46.61,0,0,1,8.55,12.59,28.88,28.88,0,0,1,2.07,5.8,14,14,0,0,1,.28,1.7A17,17,0,0,1,622.91,305.41Z"/><path class="cls-3" d="M655.78,288.18a26,26,0,0,1-15.21,4.74,34.39,34.39,0,0,1-11.6-2.14,48.59,48.59,0,0,1-6.18-2.71l2.77-5.32,1.06.53c9.84,4.81,18.92,4.83,25.69,0A18.54,18.54,0,0,0,660.14,267a19.66,19.66,0,0,0-9.84-16.18c-14.42-8.3-29.35-21.61-39.34-31.32l0,0-.06-.06a18.5,18.5,0,0,0-23-2.26c-12.61,8.53-2.66,25.55-1.83,26.91h0l0,0L581,247.25a38.83,38.83,0,0,1-4-9.22c-2.48-8.52-2.3-19.19,7.59-25.87a24,24,0,0,1,19.32-3.29,24.82,24.82,0,0,1,11.31,6.3l0,0c8,7.75,23.53,22,38.14,30.4a25.78,25.78,0,0,1,12.83,21.09A24.77,24.77,0,0,1,655.78,288.18Z"/><path class="cls-4" d="M865.13,226.27c-21.15-4.44-138.48-27.73-181.5-8-9.34-9.53-22.72-17.61-32.51-22.8a80.08,80.08,0,0,1-7.79-4.74c-4.71-3.21-17.22-9.88-31.65-2.44-5.39,2.78-8.49,6.6-9.22,11.36a17.32,17.32,0,0,0,1.37,9.19,24,24,0,0,0-19.32,3.29c-9.89,6.68-10.07,17.35-7.59,25.87-9.79-6-19.57-10.24-27.09-9.77a13,13,0,0,0-9.76,4.81c-5.59,7-8,13.9-7.22,20.53a19.9,19.9,0,0,0,1.88,6.39,18.64,18.64,0,0,0-14.37,5.68c-6.43,5.9-9.21,12.53-8.24,19.7,1.27,9.42,9,18.09,17,24.71-21.35,10.89-68.29,31-84.84,21.12-3.65-2.19-5.6-5.8-5.92-11l47-30.26a3,3,0,1,0-3.25-5l-43.76,28.19v-.27L433.7,316l-.1.07c-10.93,7.68-42.71,25.95-58.26,18.35-5.68-2.78-8.94-9-9.69-18.6h0L445,259.3a3,3,0,0,0-3.48-4.88l-76.21,54.33,0-.69-4.67,4.06-.07.06c-6.06,5.26-23.82,18.15-34.12,15.66-3.06-.74-5.25-2.86-6.7-6.49-7-17.44,13-39,20.46-46.26a32.71,32.71,0,0,0,3-2.77l-.05-.05,66.11-67.44a3,3,0,0,0-4.28-4.2L338.16,268.7l-.05,0c-.51.46-1.22,1.11-2.08,1.94-3.24,2.67-9.1,6.57-15.66,6.64-4.94,0-9.62-2.16-13.84-6.56-12.56-13.08-5.14-25.17,5.87-39.62,1.27-1.67,2.47-3.24,3.54-4.76,4.14-5.81,6.84-9.38,11.75-15.87,1.69-2.22,3.63-4.79,6-7.91,17.74-23.54,35.64-42,56.32-58.13,27.81-21.67,58.48-38.55,64.08-41.58,2.57.65,12.29,4.07,31.76,21.22,17.53,15.44,44.3,27.11,66.87,13.55a21.34,21.34,0,0,0,10.41-17.15A21.81,21.81,0,0,0,554.91,102c-14.68-11.62-40.63-32.56-49.63-42.24l-.17-.16c-.44-.4-3.32-3-7.91-6.63a300,300,0,0,1,43.17,5.81A189.84,189.84,0,0,0,580.26,63h63.5c30.9,0,185.12-18.35,206.34-20.89C855.3,54.18,881.55,121.93,865.13,226.27Z"/><path class="cls-4" d="M652.31,283.29c-6.77,4.82-15.85,4.8-25.69,0a46.61,46.61,0,0,0-8.55-12.59,299.19,299.19,0,0,0-32-26.64h0c-.83-1.36-10.78-18.38,1.83-26.91a18.5,18.5,0,0,1,23,2.26l.06.06,0,0c10,9.71,24.92,23,39.34,31.32A19.66,19.66,0,0,1,660.14,267,18.54,18.54,0,0,1,652.31,283.29Z"/><path class="cls-4" d="M688.59,241.69c-1.18,6.33-2.89,12.5-7.3,14.89-3.9,2.11-10.21,1.44-18.8-2a25.56,25.56,0,0,0-9.19-9c-14.61-8.4-30.15-22.65-38.14-30.4l0,0c-2.18-2.18-7.62-9-6.75-14.58.43-2.79,2.4-5.06,6-6.93,11.15-5.76,20.77-1.18,25.51,2.06a87.89,87.89,0,0,0,8.37,5.08C658.37,206.14,691,224.85,688.59,241.69Z"/><path class="cls-3" d="M694.51,242.62l0,.11c-1.44,7.8-3.7,15.52-10.34,19.13a17.22,17.22,0,0,1-8.33,1.92A35.76,35.76,0,0,1,665.48,262q-3-.9-6.24-2.26l2.29-5.54,1,.39c8.59,3.41,14.9,4.08,18.8,2,4.41-2.39,6.12-8.56,7.3-14.89,2.41-16.84-30.22-35.55-40.28-40.89a87.89,87.89,0,0,1-8.37-5.08c-4.74-3.24-14.36-7.82-25.51-2.06-3.64,1.87-5.61,4.14-6,6.93-.87,5.58,4.57,12.4,6.75,14.58l0,0-4.22,4.26-.06-.06a35.94,35.94,0,0,1-7-10.52,17.32,17.32,0,0,1-1.37-9.19c.73-4.76,3.83-8.58,9.22-11.36,14.43-7.44,26.94-.77,31.65,2.44a80.08,80.08,0,0,0,7.79,4.74c9.79,5.19,23.17,13.27,32.51,22.8A56.61,56.61,0,0,1,687.8,223C692.67,229.2,695.51,235.85,694.51,242.62Z"/></svg>