<svg width="600" height="600" viewBox="0 0 600 600" fill="none" xmlns="http://www.w3.org/2000/svg">
<path d="M437.832 287.625C437.611 287.753 437.45 287.963 437.384 288.21C437.318 288.456 437.352 288.719 437.48 288.94L450.451 311.407C450.579 311.628 450.789 311.789 451.036 311.855C451.282 311.921 451.545 311.887 451.766 311.759L474.734 298.498L460.8 274.365L437.832 287.625ZM437.832 287.625C437.611 287.753 437.45 287.963 437.384 288.21C437.318 288.456 437.352 288.719 437.48 288.94L450.451 311.407C450.579 311.628 450.789 311.789 451.036 311.855C451.282 311.921 451.545 311.887 451.766 311.759L474.734 298.498L460.8 274.365L437.832 287.625ZM437.832 287.625C437.611 287.753 437.45 287.963 437.384 288.21C437.318 288.456 437.352 288.719 437.48 288.94L450.451 311.407C450.579 311.628 450.789 311.789 451.036 311.855C451.282 311.921 451.545 311.887 451.766 311.759L474.734 298.498L460.8 274.365L437.832 287.625ZM515.11 243.009L492.474 256.078L506.408 280.211L529.043 267.143C529.264 267.015 529.426 266.805 529.492 266.558C529.558 266.312 529.523 266.049 529.396 265.828L516.424 243.361C516.297 243.14 516.086 242.979 515.84 242.913C515.593 242.847 515.331 242.881 515.11 243.009ZM463.867 272.594L477.801 296.728L503.361 281.971L489.427 257.837L463.867 272.594ZM437.832 287.625C437.611 287.753 437.45 287.963 437.384 288.21C437.318 288.456 437.352 288.719 437.48 288.94L450.451 311.407C450.579 311.628 450.789 311.789 451.036 311.855C451.282 311.921 451.545 311.887 451.766 311.759L474.734 298.498L460.8 274.365L437.832 287.625ZM437.832 287.625C437.611 287.753 437.45 287.963 437.384 288.21C437.318 288.456 437.352 288.719 437.48 288.94L450.451 311.407C450.579 311.628 450.789 311.789 451.036 311.855C451.282 311.921 451.545 311.887 451.766 311.759L474.734 298.498L460.8 274.365L437.832 287.625ZM449.494 244.618L463.431 268.756L484.967 256.322L471.031 232.183L449.494 244.618ZM463.867 272.594L477.801 296.728L503.361 281.971L489.427 257.837L463.867 272.594ZM515.11 243.009L492.474 256.078L506.408 280.211L529.043 267.143C529.264 267.015 529.426 266.805 529.492 266.558C529.558 266.312 529.523 266.049 529.396 265.828L516.424 243.361C516.297 243.14 516.086 242.979 515.84 242.913C515.593 242.847 515.331 242.881 515.11 243.009ZM515.11 243.009L492.474 256.078L506.408 280.211L529.043 267.143C529.264 267.015 529.426 266.805 529.492 266.558C529.558 266.312 529.523 266.049 529.396 265.828L516.424 243.361C516.297 243.14 516.086 242.979 515.84 242.913C515.593 242.847 515.331 242.881 515.11 243.009ZM463.867 272.594L477.801 296.728L503.361 281.971L489.427 257.837L463.867 272.594ZM449.494 244.618L463.431 268.756L484.967 256.322L471.031 232.183L449.494 244.618ZM437.832 287.625C437.611 287.753 437.45 287.963 437.384 288.21C437.318 288.456 437.352 288.719 437.48 288.94L450.451 311.407C450.579 311.628 450.789 311.789 451.036 311.855C451.282 311.921 451.545 311.887 451.766 311.759L474.734 298.498L460.8 274.365L437.832 287.625ZM437.832 287.625C437.611 287.753 437.45 287.963 437.384 288.21C437.318 288.456 437.352 288.719 437.48 288.94L450.451 311.407C450.579 311.628 450.789 311.789 451.036 311.855C451.282 311.921 451.545 311.887 451.766 311.759L474.734 298.498L460.8 274.365L437.832 287.625ZM449.494 244.618L463.431 268.756L484.967 256.322L471.031 232.183L449.494 244.618ZM463.867 272.594L477.801 296.728L503.361 281.971L489.427 257.837L463.867 272.594ZM515.11 243.009L492.474 256.078L506.408 280.211L529.043 267.143C529.264 267.015 529.426 266.805 529.492 266.558C529.558 266.312 529.523 266.049 529.396 265.828L516.424 243.361C516.297 243.14 516.086 242.979 515.84 242.913C515.593 242.847 515.331 242.881 515.11 243.009ZM389.109 205.16L402.261 227.938C402.652 228.616 403.297 229.111 404.053 229.314C404.809 229.516 405.615 229.41 406.292 229.019L428.862 215.988L414.235 190.653L389.109 205.16ZM374.341 173.676C373.663 174.068 373.168 174.713 372.965 175.469C372.763 176.225 372.869 177.03 373.26 177.708L387.333 202.082L412.468 187.57L396.92 160.64L374.341 173.676ZM399.977 158.875L415.531 185.815L437.068 173.381L421.514 146.441L399.977 158.875ZM448.152 131.061L424.591 144.664L440.145 171.604L466.283 156.514L452.21 132.14C452.018 131.803 451.76 131.507 451.452 131.269C451.145 131.032 450.793 130.857 450.418 130.756C450.043 130.655 449.652 130.629 449.266 130.679C448.881 130.729 448.509 130.855 448.173 131.049L448.152 131.061ZM441.906 174.677L456.533 200.012L480.125 186.392C480.803 186 481.297 185.356 481.5 184.6C481.702 183.843 481.596 183.038 481.205 182.36L468.054 159.581L441.906 174.677ZM417.302 188.883L431.929 214.217L453.466 201.783L438.839 176.448L417.302 188.883ZM389.099 205.165L402.251 227.944C402.642 228.622 403.287 229.117 404.043 229.32C404.799 229.522 405.604 229.416 406.282 229.025L428.852 215.994L414.224 190.659L389.099 205.165ZM374.33 173.682C373.652 174.074 373.158 174.718 372.955 175.475C372.753 176.231 372.859 177.036 373.25 177.714L387.322 202.088L412.458 187.576L396.91 160.646L374.33 173.682ZM399.967 158.881L415.521 185.821L437.058 173.387L421.504 146.447L399.967 158.881ZM448.142 131.067L424.591 144.664L440.145 171.604L466.283 156.514L452.21 132.14C452.018 131.803 451.76 131.507 451.452 131.269C451.145 131.032 450.793 130.857 450.418 130.756C450.043 130.655 449.652 130.629 449.266 130.679C448.881 130.729 448.509 130.855 448.173 131.049L448.142 131.067ZM441.896 174.683L456.523 200.018L480.125 186.392C480.803 186 481.297 185.356 481.5 184.6C481.702 183.843 481.596 183.038 481.205 182.36L468.054 159.581L441.896 174.683ZM417.292 188.888L431.919 214.223L453.456 201.789L438.828 176.454L417.292 188.888ZM515.11 243.009L492.474 256.078L506.408 280.211L529.043 267.143C529.264 267.015 529.426 266.805 529.492 266.558C529.558 266.312 529.523 266.049 529.396 265.828L516.424 243.361C516.297 243.14 516.086 242.979 515.84 242.913C515.593 242.847 515.331 242.881 515.11 243.009ZM463.867 272.594L477.801 296.728L503.361 281.971L489.427 257.837L463.867 272.594ZM449.494 244.618L463.431 268.756L484.967 256.322L471.031 232.183L449.494 244.618ZM437.832 287.625C437.611 287.753 437.45 287.963 437.384 288.21C437.318 288.456 437.352 288.719 437.48 288.94L450.451 311.407C450.579 311.628 450.789 311.789 451.036 311.855C451.282 311.921 451.545 311.887 451.766 311.759L474.734 298.498L460.8 274.365L437.832 287.625ZM437.832 287.625C437.611 287.753 437.45 287.963 437.384 288.21C437.318 288.456 437.352 288.719 437.48 288.94L450.451 311.407C450.579 311.628 450.789 311.789 451.036 311.855C451.282 311.921 451.545 311.887 451.766 311.759L474.734 298.498L460.8 274.365L437.832 287.625ZM449.494 244.618L463.431 268.756L484.967 256.322L471.031 232.183L449.494 244.618ZM463.867 272.594L477.801 296.728L503.361 281.971L489.427 257.837L463.867 272.594ZM515.11 243.009L492.474 256.078L506.408 280.211L529.043 267.143C529.264 267.015 529.426 266.805 529.492 266.558C529.558 266.312 529.523 266.049 529.396 265.828L516.424 243.361C516.297 243.14 516.086 242.979 515.84 242.913C515.593 242.847 515.331 242.881 515.11 243.009ZM389.109 205.16L402.261 227.938C402.652 228.616 403.297 229.111 404.053 229.314C404.809 229.516 405.615 229.41 406.292 229.019L428.862 215.988L414.235 190.653L389.109 205.16ZM374.341 173.676C373.663 174.068 373.168 174.713 372.965 175.469C372.763 176.225 372.869 177.03 373.26 177.708L387.333 202.082L412.468 187.57L396.92 160.64L374.341 173.676ZM399.977 158.875L415.531 185.815L437.068 173.381L421.514 146.441L399.977 158.875ZM448.152 131.061L424.591 144.664L440.145 171.604L466.283 156.514L452.21 132.14C452.018 131.803 451.76 131.507 451.452 131.269C451.145 131.032 450.793 130.857 450.418 130.756C450.043 130.655 449.652 130.629 449.266 130.679C448.881 130.729 448.509 130.855 448.173 131.049L448.152 131.061ZM441.906 174.677L456.533 200.012L480.125 186.392C480.803 186 481.297 185.356 481.5 184.6C481.702 183.843 481.596 183.038 481.205 182.36L468.054 159.581L441.906 174.677ZM417.302 188.883L431.929 214.217L453.466 201.783L438.839 176.448L417.302 188.883ZM389.099 205.165L402.251 227.944C402.642 228.622 403.287 229.117 404.043 229.32C404.799 229.522 405.604 229.416 406.282 229.025L428.852 215.994L414.224 190.659L389.099 205.165ZM374.33 173.682C373.652 174.074 373.158 174.718 372.955 175.475C372.753 176.231 372.859 177.036 373.25 177.714L387.322 202.088L412.458 187.576L396.91 160.646L374.33 173.682ZM399.967 158.881L415.521 185.821L437.058 173.387L421.504 146.447L399.967 158.881ZM448.142 131.067L424.591 144.664L440.145 171.604L466.283 156.514L452.21 132.14C452.018 131.803 451.76 131.507 451.452 131.269C451.145 131.032 450.793 130.857 450.418 130.756C450.043 130.655 449.652 130.629 449.266 130.679C448.881 130.729 448.509 130.855 448.173 131.049L448.142 131.067ZM441.896 174.683L456.523 200.018L480.125 186.392C480.803 186 481.297 185.356 481.5 184.6C481.702 183.843 481.596 183.038 481.205 182.36L468.054 159.581L441.896 174.683ZM417.292 188.888L431.919 214.223L453.456 201.789L438.828 176.454L417.292 188.888ZM515.11 243.009L492.474 256.078L506.408 280.211L529.043 267.143C529.264 267.015 529.426 266.805 529.492 266.558C529.558 266.312 529.523 266.049 529.396 265.828L516.424 243.361C516.297 243.14 516.086 242.979 515.84 242.913C515.593 242.847 515.331 242.881 515.11 243.009ZM463.867 272.594L477.801 296.728L503.361 281.971L489.427 257.837L463.867 272.594ZM449.494 244.618L463.431 268.756L484.967 256.322L471.031 232.183L449.494 244.618ZM437.832 287.625C437.611 287.753 437.45 287.963 437.384 288.21C437.318 288.456 437.352 288.719 437.48 288.94L450.451 311.407C450.579 311.628 450.789 311.789 451.036 311.855C451.282 311.921 451.545 311.887 451.766 311.759L474.734 298.498L460.8 274.365L437.832 287.625ZM437.832 287.625C437.611 287.753 437.45 287.963 437.384 288.21C437.318 288.456 437.352 288.719 437.48 288.94L450.451 311.407C450.579 311.628 450.789 311.789 451.036 311.855C451.282 311.921 451.545 311.887 451.766 311.759L474.734 298.498L460.8 274.365L437.832 287.625ZM417.312 188.877L431.939 214.212L453.476 201.777L438.849 176.442L417.312 188.877ZM449.482 244.597L463.431 268.756L484.967 256.322L471.031 232.183L449.482 244.597ZM463.856 272.573L477.789 296.707L503.349 281.95L489.427 257.837L463.856 272.573ZM389.109 205.16L402.261 227.938C402.652 228.616 403.297 229.111 404.053 229.314C404.809 229.516 405.615 229.41 406.292 229.019L428.862 215.988L414.235 190.653L389.109 205.16ZM374.341 173.676C373.663 174.068 373.168 174.713 372.965 175.469C372.763 176.225 372.869 177.03 373.26 177.708L387.333 202.082L412.468 187.57L396.92 160.64L374.341 173.676ZM399.977 158.875L415.531 185.815L437.068 173.381L421.514 146.441L399.977 158.875ZM448.152 131.061L424.591 144.664L440.145 171.604L466.283 156.514L452.21 132.14C452.018 131.803 451.76 131.507 451.452 131.269C451.145 131.032 450.793 130.857 450.418 130.756C450.043 130.655 449.652 130.629 449.266 130.679C448.881 130.729 448.509 130.855 448.173 131.049L448.152 131.061ZM441.906 174.677L456.533 200.012L480.125 186.392C480.803 186 481.297 185.356 481.5 184.6C481.702 183.843 481.596 183.038 481.205 182.36L468.054 159.581L441.906 174.677ZM515.1 243.015L492.474 256.078L506.408 280.211L529.043 267.143C529.264 267.015 529.426 266.805 529.492 266.558C529.558 266.312 529.523 266.049 529.396 265.828L516.424 243.361C516.297 243.14 516.086 242.979 515.84 242.913C515.593 242.847 515.331 242.881 515.11 243.009L515.1 243.015ZM441.906 174.677L456.533 200.012L480.125 186.392C480.803 186 481.297 185.356 481.5 184.6C481.702 183.843 481.596 183.038 481.205 182.36L468.054 159.581L441.906 174.677ZM448.173 131.049L424.591 144.664L440.145 171.604L466.283 156.514L452.21 132.14C452.018 131.803 451.76 131.507 451.452 131.269C451.145 131.032 450.793 130.857 450.418 130.756C450.043 130.655 449.652 130.629 449.266 130.679C448.881 130.729 448.509 130.855 448.173 131.049ZM417.322 188.871L431.949 214.206L453.486 201.771L438.859 176.436L417.322 188.871ZM389.12 205.154L402.271 227.933C402.662 228.61 403.307 229.105 404.063 229.308C404.819 229.51 405.625 229.404 406.303 229.013L428.872 215.982L414.245 190.647L389.12 205.154ZM374.351 173.671C373.673 174.062 373.178 174.707 372.976 175.463C372.773 176.219 372.879 177.024 373.271 177.702L387.343 202.076L412.478 187.564L396.93 160.634L374.351 173.671ZM399.987 158.869L415.541 185.809L437.078 173.375L421.524 146.435L399.987 158.869ZM515.122 243.029L492.486 256.098L506.419 280.232L529.055 267.163C529.276 267.036 529.437 266.825 529.503 266.579C529.57 266.332 529.535 266.07 529.407 265.849L516.424 243.361C516.297 243.14 516.086 242.979 515.84 242.913C515.593 242.847 515.331 242.881 515.11 243.009L515.122 243.029ZM463.879 272.614L477.813 296.748L503.373 281.991L489.427 257.837L463.879 272.614ZM449.506 244.638L463.431 268.756L484.967 256.322L471.031 232.183L449.506 244.638ZM437.832 287.625C437.611 287.753 437.45 287.963 437.384 288.21C437.318 288.456 437.352 288.719 437.48 288.94L450.451 311.407C450.579 311.628 450.789 311.789 451.036 311.855C451.282 311.921 451.545 311.887 451.766 311.759L474.734 298.498L460.8 274.365L437.832 287.625ZM437.832 287.625C437.611 287.753 437.45 287.963 437.384 288.21C437.318 288.456 437.352 288.719 437.48 288.94L450.451 311.407C450.579 311.628 450.789 311.789 451.036 311.855C451.282 311.921 451.545 311.887 451.766 311.759L474.734 298.498L460.8 274.365L437.832 287.625ZM389.109 205.16L402.261 227.938C402.652 228.616 403.297 229.111 404.053 229.314C404.809 229.516 405.615 229.41 406.292 229.019L428.862 215.988L414.235 190.653L389.109 205.16ZM374.341 173.676C373.663 174.068 373.168 174.713 372.965 175.469C372.763 176.225 372.869 177.03 373.26 177.708L387.333 202.082L412.468 187.57L396.92 160.64L374.341 173.676ZM399.977 158.875L415.531 185.815L437.068 173.381L421.514 146.441L399.977 158.875ZM417.302 188.883L431.929 214.217L453.466 201.783L438.839 176.448L417.302 188.883ZM449.472 244.603L463.42 268.762L484.957 256.328L471.021 232.189L449.472 244.603ZM463.845 272.579L477.779 296.713L503.339 281.956L489.417 257.843L463.845 272.579ZM448.173 131.049L424.591 144.664L440.145 171.604L466.283 156.514L452.21 132.14C452.018 131.803 451.76 131.507 451.452 131.269C451.145 131.032 450.793 130.857 450.418 130.756C450.043 130.655 449.652 130.629 449.266 130.679C448.881 130.729 448.509 130.855 448.173 131.049ZM441.926 174.666L456.553 200.001L480.125 186.392C480.803 186 481.297 185.356 481.5 184.6C481.702 183.843 481.596 183.038 481.205 182.36L468.054 159.581L441.926 174.666ZM515.12 243.003L492.474 256.078L506.408 280.211L529.043 267.143C529.264 267.015 529.426 266.805 529.492 266.558C529.558 266.312 529.523 266.049 529.396 265.828L516.424 243.361C516.297 243.14 516.086 242.979 515.84 242.913C515.593 242.847 515.331 242.881 515.11 243.009L515.12 243.003ZM441.926 174.666L456.553 200.001L480.125 186.392C480.803 186 481.297 185.356 481.5 184.6C481.702 183.843 481.596 183.038 481.205 182.36L468.054 159.581L441.926 174.666ZM448.173 131.049L424.591 144.664L440.145 171.604L466.283 156.514L452.21 132.14C452.018 131.803 451.76 131.507 451.452 131.269C451.145 131.032 450.793 130.857 450.418 130.756C450.043 130.655 449.652 130.629 449.266 130.679C448.881 130.729 448.509 130.855 448.173 131.049ZM417.322 188.871L431.949 214.206L453.486 201.771L438.859 176.436L417.322 188.871ZM399.998 158.863L415.552 185.804L437.088 173.369L421.534 146.429L399.998 158.863ZM389.12 205.154L402.271 227.933C402.662 228.61 403.307 229.105 404.063 229.308C404.819 229.51 405.625 229.404 406.303 229.013L428.872 215.982L414.245 190.647L389.12 205.154ZM374.351 173.671C373.673 174.062 373.178 174.707 372.976 175.463C372.773 176.219 372.879 177.024 373.271 177.702L387.343 202.076L412.478 187.564L396.93 160.634L374.351 173.671ZM515.122 243.029L492.486 256.098L506.419 280.232L529.055 267.163C529.276 267.036 529.437 266.825 529.503 266.579C529.57 266.332 529.535 266.07 529.407 265.849L516.424 243.361C516.297 243.14 516.086 242.979 515.84 242.913C515.593 242.847 515.331 242.881 515.11 243.009L515.122 243.029ZM463.879 272.614L477.813 296.748L503.373 281.991L489.427 257.837L463.879 272.614ZM449.506 244.638L463.431 268.756L484.967 256.322L471.031 232.183L449.506 244.638ZM437.832 287.625C437.611 287.753 437.45 287.963 437.384 288.21C437.318 288.456 437.352 288.719 437.48 288.94L450.451 311.407C450.579 311.628 450.789 311.789 451.036 311.855C451.282 311.921 451.545 311.887 451.766 311.759L474.734 298.498L460.8 274.365L437.832 287.625ZM437.832 287.625C437.611 287.753 437.45 287.963 437.384 288.21C437.318 288.456 437.352 288.719 437.48 288.94L450.451 311.407C450.579 311.628 450.789 311.789 451.036 311.855C451.282 311.921 451.545 311.887 451.766 311.759L474.734 298.498L460.8 274.365L437.832 287.625ZM374.339 173.65C373.661 174.042 373.166 174.686 372.964 175.442C372.761 176.198 372.867 177.004 373.259 177.682L387.331 202.056L412.467 187.544L396.93 160.634L374.339 173.65ZM389.108 205.133L402.271 227.933C402.662 228.61 403.307 229.105 404.063 229.308C404.819 229.51 405.625 229.404 406.303 229.013L428.872 215.982L414.245 190.647L389.108 205.133ZM399.986 158.843L415.54 185.783L437.076 173.349L421.534 146.429L399.986 158.843ZM417.311 188.85L431.949 214.206L453.486 201.771L438.859 176.436L417.311 188.85ZM449.481 244.571L463.441 268.75L484.978 256.316L471.041 232.177L449.481 244.571ZM463.854 272.547L477.788 296.681L503.347 281.924L489.437 257.831L463.854 272.547ZM448.173 131.049L424.591 144.664L440.145 171.604L466.283 156.514L452.21 132.14C452.018 131.803 451.76 131.507 451.452 131.269C451.145 131.032 450.793 130.857 450.418 130.756C450.043 130.655 449.652 130.629 449.266 130.679C448.881 130.729 448.509 130.855 448.173 131.049ZM441.926 174.666L456.553 200.001L480.125 186.392C480.803 186 481.297 185.356 481.5 184.6C481.702 183.843 481.596 183.038 481.205 182.36L468.054 159.581L441.926 174.666ZM515.12 243.003L492.474 256.078L506.408 280.211L529.043 267.143C529.264 267.015 529.426 266.805 529.492 266.558C529.558 266.312 529.523 266.049 529.396 265.828L516.424 243.361C516.297 243.14 516.086 242.979 515.84 242.913C515.593 242.847 515.331 242.881 515.11 243.009L515.12 243.003ZM456.543 200.006L480.125 186.392C480.803 186 481.297 185.356 481.5 184.6C481.702 183.843 481.596 183.038 481.205 182.36L468.054 159.581L441.916 174.672L456.543 200.006ZM448.173 131.049L424.591 144.664L440.145 171.604L466.283 156.514L452.21 132.14C452.018 131.803 451.76 131.507 451.452 131.269C451.145 131.032 450.793 130.857 450.418 130.756C450.043 130.655 449.652 130.629 449.266 130.679C448.881 130.729 448.509 130.855 448.173 131.049ZM431.939 214.212L453.476 201.777L438.849 176.442L417.312 188.877L431.939 214.212ZM415.541 185.809L437.078 173.375L421.524 146.435L399.987 158.869L415.541 185.809ZM402.261 227.938C402.652 228.616 403.297 229.111 404.053 229.314C404.809 229.516 405.615 229.41 406.292 229.019L428.862 215.988L414.235 190.653L389.109 205.16L402.261 227.938ZM373.272 177.729L387.344 202.103L412.48 187.591L396.92 160.64L374.351 173.671C374.013 173.864 373.716 174.122 373.478 174.431C373.241 174.74 373.066 175.092 372.965 175.469C372.865 175.845 372.839 176.237 372.891 176.624C372.943 177.01 373.07 177.382 373.266 177.718L373.272 177.729ZM515.11 243.009L492.474 256.078L506.408 280.211L529.043 267.143C529.264 267.015 529.426 266.805 529.492 266.558C529.558 266.312 529.523 266.049 529.396 265.828L516.424 243.361C516.297 243.14 516.086 242.979 515.84 242.913C515.593 242.847 515.331 242.881 515.11 243.009ZM477.801 296.728L503.361 281.971L489.427 257.837L463.867 272.594L477.801 296.728ZM471.031 232.183L449.494 244.618L463.431 268.756L484.967 256.322L471.031 232.183ZM437.48 288.94L450.451 311.407C450.579 311.628 450.789 311.789 451.036 311.855C451.282 311.921 451.545 311.887 451.766 311.759L474.734 298.498L460.8 274.365L437.832 287.625C437.611 287.753 437.45 287.963 437.384 288.21C437.318 288.456 437.352 288.719 437.48 288.94ZM447.388 96.9181L50.7244 325.932C50.1328 326.273 49.6142 326.727 49.1982 327.268C48.7822 327.809 48.4769 328.427 48.2998 329.086C48.1228 329.746 48.0774 330.433 48.1663 331.11C48.2552 331.787 48.4767 332.44 48.818 333.031L145.485 500.463C145.827 501.055 146.281 501.573 146.823 501.988C147.364 502.404 147.983 502.708 148.642 502.885C149.302 503.061 149.989 503.105 150.666 503.016C151.343 502.926 151.995 502.704 152.586 502.362L549.276 273.333C549.867 272.992 550.386 272.539 550.802 271.997C551.218 271.456 551.523 270.838 551.7 270.179C551.877 269.52 551.923 268.832 551.834 268.155C551.745 267.478 551.523 266.826 551.182 266.234L454.515 98.8017C454.172 98.2084 453.716 97.6886 453.171 97.2725C452.627 96.8563 452.006 96.5519 451.344 96.3768C450.681 96.2018 449.991 96.1595 449.312 96.2524C448.633 96.3452 447.979 96.5715 447.388 96.9181ZM138.641 460.275L75.8142 351.456C74.7184 349.558 74.4214 347.303 74.9887 345.185C75.5559 343.068 76.941 341.263 78.839 340.168L353.265 181.727C355.163 180.641 357.414 180.351 359.525 180.92C361.636 181.49 363.435 182.873 364.529 184.767L427.355 293.586C428.439 295.479 428.731 297.724 428.166 299.831C427.601 301.938 426.226 303.737 424.341 304.834L149.915 463.274C148.021 464.368 145.771 464.666 143.658 464.104C141.545 463.541 139.741 462.165 138.641 460.275ZM513.339 239.942C514.374 239.346 515.603 239.185 516.756 239.494C517.909 239.803 518.893 240.557 519.491 241.59L532.463 264.058C533.058 265.092 533.219 266.321 532.91 267.474C532.601 268.628 531.847 269.612 530.814 270.21L453.536 314.826C452.502 315.422 451.273 315.583 450.119 315.274C448.966 314.965 447.982 314.211 447.384 313.178L434.413 290.711C433.817 289.676 433.656 288.447 433.965 287.294C434.274 286.14 435.028 285.157 436.061 284.558L460.364 270.527L446.359 246.271C445.909 245.488 445.788 244.559 446.021 243.687C446.255 242.815 446.825 242.071 447.606 241.618L469.378 229.048C470.16 228.598 471.089 228.477 471.962 228.71C472.834 228.944 473.578 229.514 474.03 230.295L488.035 254.551L513.339 239.942ZM484.272 180.589C485.133 182.08 485.367 183.853 484.921 185.516C484.475 187.18 483.387 188.598 481.896 189.459L408.074 232.08C406.582 232.941 404.81 233.174 403.146 232.729C401.483 232.283 400.065 231.195 399.204 229.703L370.209 179.483C369.348 177.992 369.115 176.22 369.561 174.556C370.006 172.893 371.095 171.475 372.586 170.614L446.408 127.992C447.899 127.131 449.672 126.898 451.335 127.344C452.998 127.789 454.417 128.878 455.278 130.369L484.272 180.589ZM529.401 265.839L516.424 243.361C516.297 243.14 516.086 242.979 515.84 242.913C515.593 242.847 515.331 242.881 515.11 243.009L492.474 256.078L506.408 280.211L529.043 267.143C529.264 267.015 529.426 266.805 529.492 266.558C529.558 266.312 529.523 266.049 529.396 265.828L529.401 265.839ZM456.543 200.006L480.125 186.392C480.803 186 481.297 185.356 481.5 184.6C481.702 183.843 481.596 183.038 481.205 182.36L468.054 159.581L441.916 174.672L456.543 200.006ZM448.173 131.049L424.591 144.664L440.145 171.604L466.283 156.514L452.21 132.14C452.018 131.803 451.76 131.507 451.452 131.269C451.145 131.032 450.793 130.857 450.418 130.756C450.043 130.655 449.652 130.629 449.266 130.679C448.881 130.729 448.509 130.855 448.173 131.049ZM477.801 296.728L503.361 281.971L489.427 257.837L463.867 272.594L477.801 296.728ZM471.031 232.183L449.494 244.618L463.431 268.756L484.967 256.322L471.031 232.183ZM431.939 214.212L453.476 201.777L438.849 176.442L417.312 188.877L431.939 214.212ZM415.541 185.809L437.078 173.375L421.524 146.435L399.987 158.869L415.541 185.809ZM402.261 227.938C402.652 228.616 403.297 229.111 404.053 229.314C404.809 229.516 405.615 229.41 406.292 229.019L428.862 215.988L414.235 190.653L389.109 205.16L402.261 227.938ZM373.272 177.729L387.344 202.103L412.48 187.591L396.92 160.64L374.351 173.671C374.013 173.864 373.716 174.122 373.478 174.431C373.241 174.74 373.066 175.092 372.965 175.469C372.865 175.845 372.839 176.237 372.891 176.624C372.943 177.01 373.07 177.382 373.266 177.718L373.272 177.729ZM437.486 288.95L450.457 311.417C450.585 311.638 450.795 311.799 451.041 311.865C451.288 311.931 451.551 311.897 451.772 311.769L474.74 298.509L460.8 274.365L437.832 287.625C437.611 287.753 437.45 287.963 437.384 288.21C437.318 288.456 437.352 288.719 437.48 288.94L437.486 288.95ZM283.817 381.89L284.702 383.424L423.462 303.311C424.94 302.448 426.018 301.036 426.461 299.383C426.904 297.729 426.677 295.968 425.827 294.481L362.995 185.652C362.136 184.165 360.724 183.079 359.067 182.631C357.409 182.183 355.642 182.409 354.151 183.261L79.7245 341.701C78.2331 342.562 77.1449 343.98 76.6992 345.644C76.2535 347.307 76.4868 349.08 77.3478 350.571L91.8599 375.706L93.3935 374.821L109.408 402.559L202.093 349.047L202.518 349.783L205.585 348.012L205.16 347.276L231.697 331.955L232.122 332.691L235.189 330.92L234.764 330.184L259.434 315.941L259.859 316.677L262.926 314.906L262.501 314.17L291.972 297.155L292.397 297.891L295.464 296.121L295.039 295.384L318.646 281.755L319.071 282.491L322.138 280.72L321.713 279.984L348.25 264.663L348.675 265.399L351.742 263.629L351.317 262.892L391.988 239.411L393.759 242.478L359.621 262.188L359.199 261.457L356.131 263.228L356.554 263.959L329.619 279.509L329.196 278.778L326.129 280.549L326.551 281.28L300.209 296.489L299.787 295.758L296.72 297.529L297.142 298.26L270.606 313.58L270.184 312.849L267.117 314.62L267.539 315.351L236.535 333.252L236.112 332.521L233.045 334.291L233.467 335.022L211.798 347.533L211.376 346.802L208.308 348.573L208.73 349.304L111.179 405.626L127.193 433.363L224.745 377.042L225.17 377.778L228.237 376.007L227.812 375.271L249.482 362.76L249.907 363.496L252.974 361.725L252.549 360.989L283.553 343.089L283.978 343.825L287.045 342.054L286.62 341.318L313.156 325.997L313.581 326.733L316.649 324.963L316.224 324.226L342.566 309.018L342.991 309.754L346.058 307.983L345.633 307.247L372.568 291.696L372.993 292.432L376.06 290.661L375.635 289.925L409.773 270.216L411.544 273.283L362.402 301.655L361.517 300.121L358.45 301.892L359.335 303.426L330.601 320.016L329.715 318.482L326.648 320.253L327.533 321.786L271.813 353.957L270.927 352.423L267.86 354.194L268.746 355.727L128.964 436.431L141.708 458.504C142.338 459.58 143.369 460.364 144.575 460.683C145.781 461.002 147.064 460.831 148.144 460.207L283.817 381.89ZM437.832 287.625C437.611 287.753 437.45 287.963 437.384 288.21C437.318 288.456 437.352 288.719 437.48 288.94L450.451 311.407C450.579 311.628 450.789 311.789 451.036 311.855C451.282 311.921 451.545 311.887 451.766 311.759L474.734 298.498L460.8 274.365L437.832 287.625ZM449.494 244.618L463.431 268.756L484.967 256.322L471.031 232.183L449.494 244.618ZM463.867 272.594L477.801 296.728L503.361 281.971L489.427 257.837L463.867 272.594ZM515.11 243.009L492.474 256.078L506.408 280.211L529.043 267.143C529.264 267.015 529.426 266.805 529.492 266.558C529.558 266.312 529.523 266.049 529.396 265.828L516.424 243.361C516.297 243.14 516.086 242.979 515.84 242.913C515.593 242.847 515.331 242.881 515.11 243.009ZM374.339 173.65C373.661 174.042 373.166 174.686 372.964 175.442C372.761 176.198 372.867 177.004 373.259 177.682L387.331 202.056L412.467 187.544L396.93 160.634L374.339 173.65ZM389.108 205.133L402.271 227.933C402.662 228.61 403.307 229.105 404.063 229.308C404.819 229.51 405.625 229.404 406.303 229.013L428.872 215.982L414.245 190.647L389.108 205.133ZM399.986 158.843L415.54 185.783L437.076 173.349L421.534 146.429L399.986 158.843ZM417.311 188.85L431.949 214.206L453.486 201.771L438.859 176.436L417.311 188.85ZM448.173 131.049L424.591 144.664L440.145 171.604L466.283 156.514L452.21 132.14C452.018 131.803 451.76 131.507 451.452 131.269C451.145 131.032 450.793 130.857 450.418 130.756C450.043 130.655 449.652 130.629 449.266 130.679C448.881 130.729 448.509 130.855 448.173 131.049ZM441.926 174.666L456.553 200.001L480.125 186.392C480.803 186 481.297 185.356 481.5 184.6C481.702 183.843 481.596 183.038 481.205 182.36L468.054 159.581L441.926 174.666ZM515.12 243.003L492.474 256.078L506.408 280.211L529.043 267.143C529.264 267.015 529.426 266.805 529.492 266.558C529.558 266.312 529.523 266.049 529.396 265.828L516.424 243.361C516.297 243.14 516.086 242.979 515.84 242.913C515.593 242.847 515.331 242.881 515.11 243.009L515.12 243.003ZM441.926 174.666L456.553 200.001L480.125 186.392C480.803 186 481.297 185.356 481.5 184.6C481.702 183.843 481.596 183.038 481.205 182.36L468.054 159.581L441.926 174.666ZM448.173 131.049L424.591 144.664L440.145 171.604L466.283 156.514L452.21 132.14C452.018 131.803 451.76 131.507 451.452 131.269C451.145 131.032 450.793 130.857 450.418 130.756C450.043 130.655 449.652 130.629 449.266 130.679C448.881 130.729 448.509 130.855 448.173 131.049ZM463.889 272.608L477.823 296.742L503.383 281.985L489.437 257.831L463.889 272.608ZM449.516 244.632L463.441 268.75L484.978 256.316L471.041 232.177L449.516 244.632ZM417.346 188.912L431.949 214.206L453.486 201.771L438.859 176.436L417.346 188.912ZM400.021 158.904L415.575 185.844L437.112 173.41L421.534 146.429L400.021 158.904ZM389.143 205.194L402.271 227.933C402.662 228.61 403.307 229.105 404.063 229.308C404.819 229.51 405.625 229.404 406.303 229.013L428.872 215.982L414.245 190.647L389.143 205.194ZM374.374 173.711C373.697 174.103 373.202 174.748 372.999 175.504C372.797 176.26 372.903 177.065 373.294 177.743L387.366 202.117L412.502 187.605L396.93 160.634L374.374 173.711ZM437.867 287.687C437.646 287.814 437.485 288.024 437.419 288.271C437.353 288.517 437.388 288.78 437.515 289.001L450.487 311.468C450.614 311.689 450.824 311.85 451.071 311.916C451.317 311.983 451.58 311.948 451.801 311.82L474.769 298.56L460.8 274.365L437.867 287.687ZM437.867 287.687C437.646 287.814 437.485 288.024 437.419 288.271C437.353 288.517 437.388 288.78 437.515 289.001L450.487 311.468C450.614 311.689 450.824 311.85 451.071 311.916C451.317 311.983 451.58 311.948 451.801 311.82L474.769 298.56L460.8 274.365L437.867 287.687ZM449.53 244.679L463.431 268.756L484.967 256.322L471.031 232.183L449.53 244.679ZM463.903 272.655L477.836 296.789L503.396 282.032L489.427 257.837L463.903 272.655ZM515.145 243.07L492.509 256.139L506.443 280.273L529.079 267.204C529.3 267.076 529.461 266.866 529.527 266.62C529.593 266.373 529.559 266.111 529.431 265.89L516.424 243.361C516.297 243.14 516.086 242.979 515.84 242.913C515.593 242.847 515.331 242.881 515.11 243.009L515.145 243.07ZM389.109 205.16L402.261 227.938C402.652 228.616 403.297 229.111 404.053 229.314C404.809 229.516 405.615 229.41 406.292 229.019L428.862 215.988L414.235 190.653L389.109 205.16ZM374.341 173.676C373.663 174.068 373.168 174.713 372.965 175.469C372.763 176.225 372.869 177.03 373.26 177.708L387.333 202.082L412.468 187.57L396.92 160.64L374.341 173.676ZM399.977 158.875L415.531 185.815L437.068 173.381L421.514 146.441L399.977 158.875ZM417.302 188.883L431.929 214.217L453.466 201.783L438.839 176.448L417.302 188.883ZM448.173 131.049L424.591 144.664L440.145 171.604L466.283 156.514L452.21 132.14C452.018 131.803 451.76 131.507 451.452 131.269C451.145 131.032 450.793 130.857 450.418 130.756C450.043 130.655 449.652 130.629 449.266 130.679C448.881 130.729 448.509 130.855 448.173 131.049ZM441.926 174.666L456.553 200.001L480.125 186.392C480.803 186 481.297 185.356 481.5 184.6C481.702 183.843 481.596 183.038 481.205 182.36L468.054 159.581L441.926 174.666ZM515.12 243.003L492.474 256.078L506.408 280.211L529.043 267.143C529.264 267.015 529.426 266.805 529.492 266.558C529.558 266.312 529.523 266.049 529.396 265.828L516.424 243.361C516.297 243.14 516.086 242.979 515.84 242.913C515.593 242.847 515.331 242.881 515.11 243.009L515.12 243.003ZM441.926 174.666L456.553 200.001L480.125 186.392C480.803 186 481.297 185.356 481.5 184.6C481.702 183.843 481.596 183.038 481.205 182.36L468.054 159.581L441.926 174.666ZM448.173 131.049L424.591 144.664L440.145 171.604L466.283 156.514L452.21 132.14C452.018 131.803 451.76 131.507 451.452 131.269C451.145 131.032 450.793 130.857 450.418 130.756C450.043 130.655 449.652 130.629 449.266 130.679C448.881 130.729 448.509 130.855 448.173 131.049ZM463.889 272.608L477.823 296.742L503.383 281.985L489.437 257.831L463.889 272.608ZM449.516 244.632L463.441 268.75L484.978 256.316L471.041 232.177L449.516 244.632ZM417.346 188.912L431.949 214.206L453.486 201.771L438.859 176.436L417.346 188.912ZM389.143 205.194L402.271 227.933C402.662 228.61 403.307 229.105 404.063 229.308C404.819 229.51 405.625 229.404 406.303 229.013L428.872 215.982L414.245 190.647L389.143 205.194ZM374.374 173.711C373.697 174.103 373.202 174.748 372.999 175.504C372.797 176.26 372.903 177.065 373.294 177.743L387.366 202.117L412.502 187.605L396.93 160.634L374.374 173.711ZM400.011 158.91L415.565 185.85L437.102 173.416L421.524 146.435L400.011 158.91ZM437.867 287.687C437.646 287.814 437.485 288.024 437.419 288.271C437.353 288.517 437.388 288.78 437.515 289.001L450.487 311.468C450.614 311.689 450.824 311.85 451.071 311.916C451.317 311.983 451.58 311.948 451.801 311.82L474.769 298.56L460.8 274.365L437.867 287.687ZM437.867 287.687C437.646 287.814 437.485 288.024 437.419 288.271C437.353 288.517 437.388 288.78 437.515 289.001L450.487 311.468C450.614 311.689 450.824 311.85 451.071 311.916C451.317 311.983 451.58 311.948 451.801 311.82L474.769 298.56L460.8 274.365L437.867 287.687ZM449.53 244.679L463.431 268.756L484.967 256.322L471.031 232.183L449.53 244.679ZM463.903 272.655L477.836 296.789L503.396 282.032L489.427 257.837L463.903 272.655ZM515.145 243.07L492.509 256.139L506.443 280.273L529.079 267.204C529.3 267.076 529.461 266.866 529.527 266.62C529.593 266.373 529.559 266.111 529.431 265.89L516.424 243.361C516.297 243.14 516.086 242.979 515.84 242.913C515.593 242.847 515.331 242.881 515.11 243.009L515.145 243.07ZM417.312 188.877L431.939 214.212L453.476 201.777L438.849 176.442L417.312 188.877ZM389.109 205.16L402.261 227.938C402.652 228.616 403.297 229.111 404.053 229.314C404.809 229.516 405.615 229.41 406.292 229.019L428.862 215.988L414.235 190.653L389.109 205.16ZM374.341 173.676C373.663 174.068 373.168 174.713 372.965 175.469C372.763 176.225 372.869 177.03 373.26 177.708L387.333 202.082L412.468 187.57L396.92 160.64L374.341 173.676ZM399.977 158.875L415.531 185.815L437.068 173.381L421.514 146.441L399.977 158.875ZM448.152 131.061L424.591 144.664L440.145 171.604L466.283 156.514L452.21 132.14C452.018 131.803 451.76 131.507 451.452 131.269C451.145 131.032 450.793 130.857 450.418 130.756C450.043 130.655 449.652 130.629 449.266 130.679C448.881 130.729 448.509 130.855 448.173 131.049L448.152 131.061ZM441.906 174.677L456.533 200.012L480.125 186.392C480.803 186 481.297 185.356 481.5 184.6C481.702 183.843 481.596 183.038 481.205 182.36L468.054 159.581L441.906 174.677ZM389.099 205.165L402.251 227.944C402.642 228.622 403.287 229.117 404.043 229.32C404.799 229.522 405.604 229.416 406.282 229.025L428.852 215.994L414.224 190.659L389.099 205.165ZM374.33 173.682C373.652 174.074 373.158 174.718 372.955 175.475C372.753 176.231 372.859 177.036 373.25 177.714L387.322 202.088L412.458 187.576L396.91 160.646L374.33 173.682ZM399.967 158.881L415.521 185.821L437.058 173.387L421.504 146.447L399.967 158.881ZM448.142 131.067L424.591 144.664L440.145 171.604L466.283 156.514L452.21 132.14C452.018 131.803 451.76 131.507 451.452 131.269C451.145 131.032 450.793 130.857 450.418 130.756C450.043 130.655 449.652 130.629 449.266 130.679C448.881 130.729 448.509 130.855 448.173 131.049L448.142 131.067ZM515.101 243.041L492.486 256.098L506.419 280.232L529.055 267.163C529.276 267.036 529.437 266.825 529.503 266.579C529.57 266.332 529.535 266.07 529.407 265.849L516.424 243.361C516.297 243.14 516.086 242.979 515.84 242.913C515.593 242.847 515.331 242.881 515.11 243.009L515.101 243.041ZM441.907 174.704L456.523 200.018L480.125 186.392C480.803 186 481.297 185.356 481.5 184.6C481.702 183.843 481.596 183.038 481.205 182.36L468.054 159.581L441.907 174.704ZM463.867 272.594L477.801 296.728L503.361 281.971L489.427 257.837L463.867 272.594ZM449.494 244.618L463.431 268.756L484.967 256.322L471.031 232.183L449.494 244.618ZM417.324 188.897L431.939 214.212L453.476 201.777L438.849 176.442L417.324 188.897ZM437.832 287.625C437.611 287.753 437.45 287.963 437.384 288.21C437.318 288.456 437.352 288.719 437.48 288.94L450.451 311.407C450.579 311.628 450.789 311.789 451.036 311.855C451.282 311.921 451.545 311.887 451.766 311.759L474.734 298.498L460.8 274.365L437.832 287.625ZM437.832 287.625C437.611 287.753 437.45 287.963 437.384 288.21C437.318 288.456 437.352 288.719 437.48 288.94L450.451 311.407C450.579 311.628 450.789 311.789 451.036 311.855C451.282 311.921 451.545 311.887 451.766 311.759L474.734 298.498L460.8 274.365L437.832 287.625ZM449.494 244.618L463.431 268.756L484.967 256.322L471.031 232.183L449.494 244.618ZM463.867 272.594L477.801 296.728L503.361 281.971L489.427 257.837L463.867 272.594ZM515.11 243.009L492.474 256.078L506.408 280.211L529.043 267.143C529.264 267.015 529.426 266.805 529.492 266.558C529.558 266.312 529.523 266.049 529.396 265.828L516.424 243.361C516.297 243.14 516.086 242.979 515.84 242.913C515.593 242.847 515.331 242.881 515.11 243.009ZM389.109 205.16L402.261 227.938C402.652 228.616 403.297 229.111 404.053 229.314C404.809 229.516 405.615 229.41 406.292 229.019L428.862 215.988L414.235 190.653L389.109 205.16ZM374.341 173.676C373.663 174.068 373.168 174.713 372.965 175.469C372.763 176.225 372.869 177.03 373.26 177.708L387.333 202.082L412.468 187.57L396.92 160.64L374.341 173.676ZM399.977 158.875L415.531 185.815L437.068 173.381L421.514 146.441L399.977 158.875ZM448.152 131.061L424.591 144.664L440.145 171.604L466.283 156.514L452.21 132.14C452.018 131.803 451.76 131.507 451.452 131.269C451.145 131.032 450.793 130.857 450.418 130.756C450.043 130.655 449.652 130.629 449.266 130.679C448.881 130.729 448.509 130.855 448.173 131.049L448.152 131.061ZM441.906 174.677L456.533 200.012L480.125 186.392C480.803 186 481.297 185.356 481.5 184.6C481.702 183.843 481.596 183.038 481.205 182.36L468.054 159.581L441.906 174.677ZM417.302 188.883L431.929 214.217L453.466 201.783L438.839 176.448L417.302 188.883ZM389.099 205.165L402.251 227.944C402.642 228.622 403.287 229.117 404.043 229.32C404.799 229.522 405.604 229.416 406.282 229.025L428.852 215.994L414.224 190.659L389.099 205.165ZM374.33 173.682C373.652 174.074 373.158 174.718 372.955 175.475C372.753 176.231 372.859 177.036 373.25 177.714L387.322 202.088L412.458 187.576L396.91 160.646L374.33 173.682ZM399.967 158.881L415.521 185.821L437.058 173.387L421.504 146.447L399.967 158.881ZM448.142 131.067L424.591 144.664L440.145 171.604L466.283 156.514L452.21 132.14C452.018 131.803 451.76 131.507 451.452 131.269C451.145 131.032 450.793 130.857 450.418 130.756C450.043 130.655 449.652 130.629 449.266 130.679C448.881 130.729 448.509 130.855 448.173 131.049L448.142 131.067ZM441.896 174.683L456.523 200.018L480.125 186.392C480.803 186 481.297 185.356 481.5 184.6C481.702 183.843 481.596 183.038 481.205 182.36L468.054 159.581L441.896 174.683ZM417.292 188.888L431.919 214.223L453.456 201.789L438.828 176.454L417.292 188.888ZM515.11 243.009L492.474 256.078L506.408 280.211L529.043 267.143C529.264 267.015 529.426 266.805 529.492 266.558C529.558 266.312 529.523 266.049 529.396 265.828L516.424 243.361C516.297 243.14 516.086 242.979 515.84 242.913C515.593 242.847 515.331 242.881 515.11 243.009ZM463.867 272.594L477.801 296.728L503.361 281.971L489.427 257.837L463.867 272.594ZM449.494 244.618L463.431 268.756L484.967 256.322L471.031 232.183L449.494 244.618ZM437.832 287.625C437.611 287.753 437.45 287.963 437.384 288.21C437.318 288.456 437.352 288.719 437.48 288.94L450.451 311.407C450.579 311.628 450.789 311.789 451.036 311.855C451.282 311.921 451.545 311.887 451.766 311.759L474.734 298.498L460.8 274.365L437.832 287.625ZM437.832 287.625C437.611 287.753 437.45 287.963 437.384 288.21C437.318 288.456 437.352 288.719 437.48 288.94L450.451 311.407C450.579 311.628 450.789 311.789 451.036 311.855C451.282 311.921 451.545 311.887 451.766 311.759L474.734 298.498L460.8 274.365L437.832 287.625ZM449.494 244.618L463.431 268.756L484.967 256.322L471.031 232.183L449.494 244.618ZM463.867 272.594L477.801 296.728L503.361 281.971L489.427 257.837L463.867 272.594ZM515.11 243.009L492.474 256.078L506.408 280.211L529.043 267.143C529.264 267.015 529.426 266.805 529.492 266.558C529.558 266.312 529.523 266.049 529.396 265.828L516.424 243.361C516.297 243.14 516.086 242.979 515.84 242.913C515.593 242.847 515.331 242.881 515.11 243.009ZM389.109 205.16L402.261 227.938C402.652 228.616 403.297 229.111 404.053 229.314C404.809 229.516 405.615 229.41 406.292 229.019L428.862 215.988L414.235 190.653L389.109 205.16ZM374.341 173.676C373.663 174.068 373.168 174.713 372.965 175.469C372.763 176.225 372.869 177.03 373.26 177.708L387.333 202.082L412.468 187.57L396.92 160.64L374.341 173.676ZM399.977 158.875L415.531 185.815L437.068 173.381L421.514 146.441L399.977 158.875ZM448.152 131.061L424.591 144.664L440.145 171.604L466.283 156.514L452.21 132.14C452.018 131.803 451.76 131.507 451.452 131.269C451.145 131.032 450.793 130.857 450.418 130.756C450.043 130.655 449.652 130.629 449.266 130.679C448.881 130.729 448.509 130.855 448.173 131.049L448.152 131.061ZM441.906 174.677L456.533 200.012L480.125 186.392C480.803 186 481.297 185.356 481.5 184.6C481.702 183.843 481.596 183.038 481.205 182.36L468.054 159.581L441.906 174.677ZM417.302 188.883L431.929 214.217L453.466 201.783L438.839 176.448L417.302 188.883ZM389.099 205.165L402.251 227.944C402.642 228.622 403.287 229.117 404.043 229.32C404.799 229.522 405.604 229.416 406.282 229.025L428.852 215.994L414.224 190.659L389.099 205.165ZM374.33 173.682C373.652 174.074 373.158 174.718 372.955 175.475C372.753 176.231 372.859 177.036 373.25 177.714L387.322 202.088L412.458 187.576L396.91 160.646L374.33 173.682ZM399.967 158.881L415.521 185.821L437.058 173.387L421.504 146.447L399.967 158.881ZM448.142 131.067L424.591 144.664L440.145 171.604L466.283 156.514L452.21 132.14C452.018 131.803 451.76 131.507 451.452 131.269C451.145 131.032 450.793 130.857 450.418 130.756C450.043 130.655 449.652 130.629 449.266 130.679C448.881 130.729 448.509 130.855 448.173 131.049L448.142 131.067ZM441.896 174.683L456.523 200.018L480.125 186.392C480.803 186 481.297 185.356 481.5 184.6C481.702 183.843 481.596 183.038 481.205 182.36L468.054 159.581L441.896 174.683ZM417.292 188.888L431.919 214.223L453.456 201.789L438.828 176.454L417.292 188.888ZM515.11 243.009L492.474 256.078L506.408 280.211L529.043 267.143C529.264 267.015 529.426 266.805 529.492 266.558C529.558 266.312 529.523 266.049 529.396 265.828L516.424 243.361C516.297 243.14 516.086 242.979 515.84 242.913C515.593 242.847 515.331 242.881 515.11 243.009ZM463.867 272.594L477.801 296.728L503.361 281.971L489.427 257.837L463.867 272.594ZM449.494 244.618L463.431 268.756L484.967 256.322L471.031 232.183L449.494 244.618ZM437.832 287.625C437.611 287.753 437.45 287.963 437.384 288.21C437.318 288.456 437.352 288.719 437.48 288.94L450.451 311.407C450.579 311.628 450.789 311.789 451.036 311.855C451.282 311.921 451.545 311.887 451.766 311.759L474.734 298.498L460.8 274.365L437.832 287.625ZM437.832 287.625C437.611 287.753 437.45 287.963 437.384 288.21C437.318 288.456 437.352 288.719 437.48 288.94L450.451 311.407C450.579 311.628 450.789 311.789 451.036 311.855C451.282 311.921 451.545 311.887 451.766 311.759L474.734 298.498L460.8 274.365L437.832 287.625ZM463.867 272.594L477.801 296.728L503.361 281.971L489.427 257.837L463.867 272.594ZM515.11 243.009L492.474 256.078L506.408 280.211L529.043 267.143C529.264 267.015 529.426 266.805 529.492 266.558C529.558 266.312 529.523 266.049 529.396 265.828L516.424 243.361C516.297 243.14 516.086 242.979 515.84 242.913C515.593 242.847 515.331 242.881 515.11 243.009ZM515.11 243.009L492.474 256.078L506.408 280.211L529.043 267.143C529.264 267.015 529.426 266.805 529.492 266.558C529.558 266.312 529.523 266.049 529.396 265.828L516.424 243.361C516.297 243.14 516.086 242.979 515.84 242.913C515.593 242.847 515.331 242.881 515.11 243.009ZM437.832 287.625C437.611 287.753 437.45 287.963 437.384 288.21C437.318 288.456 437.352 288.719 437.48 288.94L450.451 311.407C450.579 311.628 450.789 311.789 451.036 311.855C451.282 311.921 451.545 311.887 451.766 311.759L474.734 298.498L460.8 274.365L437.832 287.625ZM437.832 287.625C437.611 287.753 437.45 287.963 437.384 288.21C437.318 288.456 437.352 288.719 437.48 288.94L450.451 311.407C450.579 311.628 450.789 311.789 451.036 311.855C451.282 311.921 451.545 311.887 451.766 311.759L474.734 298.498L460.8 274.365L437.832 287.625ZM437.832 287.625C437.611 287.753 437.45 287.963 437.384 288.21C437.318 288.456 437.352 288.719 437.48 288.94L450.451 311.407C450.579 311.628 450.789 311.789 451.036 311.855C451.282 311.921 451.545 311.887 451.766 311.759L474.734 298.498L460.8 274.365L437.832 287.625Z" fill="#AFC7DD"/>
<path d="M446.502 95.3842L49.838 324.398C48.239 325.323 47.072 326.845 46.5931 328.629C46.1142 330.413 46.3625 332.315 47.2835 333.916L143.951 501.349C144.877 502.947 146.4 504.113 148.184 504.59C149.969 505.067 151.87 504.817 153.471 503.895L550.16 274.866C551.759 273.941 552.926 272.42 553.405 270.636C553.884 268.851 553.636 266.95 552.715 265.349L456.047 97.9159C455.587 97.1224 454.976 96.4273 454.247 95.8704C453.518 95.3136 452.686 94.9059 451.8 94.6708C450.913 94.4356 449.989 94.3776 449.08 94.5C448.171 94.6224 447.295 94.9229 446.502 95.3842ZM549.622 267.134C550.075 267.922 550.197 268.857 549.961 269.734C549.725 270.612 549.151 271.36 548.364 271.814L151.7 500.828C150.913 501.282 149.978 501.406 149.1 501.171C148.222 500.937 147.474 500.364 147.018 499.578L50.3506 332.145C49.8977 331.358 49.7758 330.422 50.0117 329.545C50.2476 328.668 50.8221 327.92 51.6089 327.465L448.298 98.4366C449.085 97.9823 450.02 97.8588 450.898 98.0932C451.776 98.3276 452.525 98.9007 452.98 99.6868L549.622 267.134Z" fill="#778DA9"/>
<path d="M513.339 239.941L488.034 254.551L474.03 230.294C473.577 229.513 472.833 228.943 471.961 228.71C471.089 228.476 470.16 228.598 469.377 229.048L447.606 241.618C446.824 242.07 446.255 242.814 446.021 243.686C445.787 244.558 445.909 245.488 446.359 246.27L460.363 270.527L436.061 284.558C435.028 285.156 434.274 286.14 433.965 287.293C433.656 288.446 433.817 289.675 434.412 290.71L447.384 313.177C447.982 314.21 448.966 314.964 450.119 315.273C451.273 315.582 452.501 315.421 453.536 314.826L530.814 270.209C531.847 269.611 532.601 268.627 532.91 267.474C533.219 266.32 533.058 265.092 532.462 264.057L519.491 241.59C518.893 240.556 517.909 239.803 516.756 239.494C515.602 239.185 514.374 239.346 513.339 239.941ZM449.494 244.617L471.031 232.183L484.967 256.321L463.43 268.756L449.494 244.617ZM474.733 298.498L451.765 311.758C451.544 311.886 451.282 311.921 451.035 311.854C450.789 311.788 450.579 311.627 450.451 311.406L437.48 288.939C437.352 288.718 437.317 288.455 437.383 288.209C437.45 287.962 437.611 287.752 437.832 287.625L460.8 274.364L474.733 298.498ZM503.361 281.97L477.801 296.727L463.867 272.593L489.427 257.836L503.361 281.97ZM529.395 265.828C529.523 266.049 529.557 266.311 529.491 266.558C529.425 266.804 529.264 267.014 529.043 267.142L506.407 280.211L492.474 256.077L515.11 243.008C515.331 242.881 515.593 242.846 515.84 242.912C516.086 242.978 516.296 243.14 516.424 243.361L529.395 265.828Z" fill="#778DA9"/>
<path d="M362.993 185.652L425.82 294.471C426.669 295.957 426.897 297.719 426.454 299.372C426.011 301.026 424.933 302.437 423.454 303.3L284.694 383.413L283.809 381.879L148.142 460.207C147.062 460.83 145.779 461.001 144.573 460.682C143.367 460.363 142.337 459.58 141.706 458.504L128.962 436.43L268.718 355.742L267.833 354.208L270.9 352.437L271.786 353.971L327.532 321.786L326.646 320.252L329.714 318.481L330.599 320.015L359.333 303.425L358.448 301.892L361.515 300.121L362.401 301.654L411.542 273.283L409.771 270.215L375.633 289.925L376.058 290.661L372.991 292.432L372.566 291.696L345.631 307.247L346.056 307.983L342.989 309.754L342.564 309.017L316.222 324.226L316.647 324.962L313.58 326.733L313.155 325.997L286.618 341.318L287.043 342.054L283.976 343.825L283.551 343.088L252.547 360.989L252.972 361.725L249.905 363.496L249.48 362.76L227.81 375.271L228.235 376.007L225.168 377.778L224.743 377.041L127.191 433.363L111.177 405.625L208.729 349.304L208.307 348.573L211.374 346.802L211.796 347.533L233.466 335.022L233.044 334.291L236.111 332.52L236.533 333.251L267.537 315.351L267.115 314.62L270.182 312.849L270.604 313.58L297.14 298.259L296.718 297.528L299.786 295.757L300.208 296.488L326.55 281.28L326.128 280.549L329.195 278.778L329.617 279.509L356.552 263.958L356.13 263.227L359.197 261.456L359.619 262.187L393.757 242.478L391.986 239.411L351.315 262.892L351.74 263.628L348.673 265.399L348.248 264.663L321.712 279.984L322.137 280.72L319.069 282.491L318.644 281.754L295.037 295.384L295.462 296.12L292.395 297.891L291.97 297.155L262.5 314.17L262.925 314.906L259.857 316.677L259.432 315.94L234.762 330.184L235.187 330.92L232.12 332.691L231.695 331.955L205.159 347.276L205.584 348.012L202.516 349.782L202.091 349.046L109.406 402.558L93.3918 374.821L91.8582 375.706L77.3462 350.57C76.4851 349.079 76.2518 347.307 76.6975 345.643C77.1432 343.98 78.2314 342.562 79.7228 341.701L354.149 183.261C355.64 182.409 357.407 182.182 359.065 182.631C360.722 183.079 362.135 184.165 362.993 185.652Z" fill="#152432"/>
<path d="M354.161 183.281L79.7345 341.721C78.2431 342.582 77.1549 344 76.7092 345.664C76.2635 347.327 76.4968 349.1 77.3579 350.591L91.8699 375.727L93.4035 374.841L78.8797 349.685C78.2534 348.6 78.0838 347.311 78.4079 346.102C78.7321 344.892 79.5235 343.861 80.6081 343.234L355.034 184.794C356.119 184.177 357.403 184.014 358.606 184.341C359.81 184.668 360.836 185.457 361.46 186.537L424.286 295.356C424.9 296.436 425.065 297.714 424.743 298.914C424.422 300.114 423.64 301.139 422.568 301.767L283.809 381.879L284.694 383.413L423.454 303.3C424.932 302.437 426.011 301.026 426.454 299.372C426.897 297.719 426.669 295.957 425.82 294.471L362.993 185.652C362.131 184.172 360.719 183.092 359.065 182.648C357.411 182.204 355.648 182.431 354.161 183.281Z" fill="#778DA9"/>
<path d="M438.847 176.442L417.311 188.876L431.938 214.211L453.474 201.777L438.847 176.442Z" fill="#152432"/>
<path d="M468.052 159.581L481.203 182.36C481.594 183.038 481.7 183.844 481.498 184.6C481.295 185.356 480.801 186.001 480.123 186.392L456.541 200.007L441.914 174.672L468.052 159.581Z" fill="#152432"/>
<path d="M396.919 160.639L412.473 187.579L387.337 202.091L373.265 177.718C372.873 177.04 372.767 176.234 372.97 175.478C373.173 174.722 373.667 174.077 374.345 173.686L396.919 160.639Z" fill="#152432"/>
<path d="M414.244 190.647L428.872 215.982L406.302 229.013C405.624 229.404 404.819 229.51 404.063 229.307C403.307 229.105 402.662 228.61 402.271 227.932L389.119 205.153L414.244 190.647Z" fill="#152432"/>
<path d="M421.523 146.435L399.986 158.869L415.54 185.809L437.077 173.375L421.523 146.435Z" fill="#152432"/>
<path d="M452.209 132.14L466.281 156.514L440.144 171.604L424.59 144.664L448.171 131.049C448.508 130.855 448.879 130.729 449.265 130.679C449.65 130.628 450.042 130.655 450.417 130.756C450.792 130.857 451.143 131.032 451.451 131.269C451.758 131.507 452.016 131.802 452.209 132.14Z" fill="#152432"/>
<path d="M375.735 207.72L90.0879 372.639L91.8587 375.706L377.506 210.787L375.735 207.72Z" fill="#778DA9"/>
<path d="M353.276 181.747L78.8501 340.187C76.952 341.283 75.567 343.088 74.9998 345.205C74.4325 347.322 74.7295 349.578 75.8253 351.476L138.64 460.274C139.74 462.164 141.544 463.541 143.657 464.103C145.771 464.665 148.02 464.367 149.914 463.274L424.34 304.833C426.226 303.736 427.601 301.938 428.165 299.83C428.73 297.723 428.438 295.478 427.354 293.585L364.528 184.766C363.431 182.879 361.633 181.503 359.525 180.937C357.417 180.372 355.17 180.663 353.276 181.747ZM425.821 294.47C426.67 295.957 426.898 297.718 426.455 299.372C426.012 301.026 424.933 302.437 423.455 303.3L284.695 383.413L283.81 381.879L148.143 460.206C147.063 460.83 145.78 461.001 144.574 460.682C143.368 460.363 142.338 459.58 141.707 458.503L128.963 436.43L268.719 355.742L267.834 354.208L270.901 352.437L271.787 353.971L327.533 321.786L326.647 320.252L329.714 318.481L330.6 320.015L359.334 303.425L358.449 301.891L361.516 300.121L362.401 301.654L411.543 273.282L409.772 270.215L375.634 289.925L376.059 290.661L372.992 292.432L372.567 291.695L345.632 307.246L346.057 307.983L342.99 309.753L342.565 309.017L316.223 324.226L316.648 324.962L313.581 326.733L313.156 325.997L286.619 341.317L287.044 342.054L283.977 343.824L283.552 343.088L252.548 360.989L252.973 361.725L249.906 363.495L249.481 362.759L227.811 375.27L228.236 376.006L225.169 377.777L224.744 377.041L127.192 433.363L111.178 405.625L208.73 349.304L208.308 348.573L211.375 346.802L211.797 347.533L233.467 335.022L233.045 334.291L236.112 332.52L236.534 333.251L267.538 315.351L267.116 314.62L270.183 312.849L270.605 313.58L297.141 298.259L296.719 297.528L299.787 295.757L300.209 296.488L326.551 281.28L326.129 280.549L329.196 278.778L329.618 279.509L356.553 263.958L356.131 263.227L359.198 261.456L359.62 262.187L393.758 242.478L391.987 239.41L351.316 262.892L351.741 263.628L348.674 265.399L348.249 264.663L321.713 279.983L322.138 280.719L319.07 282.49L318.645 281.754L295.038 295.384L295.463 296.12L292.396 297.891L291.971 297.155L262.501 314.169L262.926 314.906L259.858 316.676L259.433 315.94L234.763 330.184L235.188 330.92L232.121 332.691L231.696 331.955L205.16 347.275L205.585 348.011L202.517 349.782L202.092 349.046L109.407 402.558L93.3927 374.82L91.8592 375.706L77.3471 350.57C76.4861 349.079 76.2527 347.307 76.6984 345.643C77.1442 343.98 78.2324 342.562 79.7237 341.701L354.15 183.26C355.641 182.409 357.408 182.182 359.066 182.63C360.723 183.078 362.136 184.165 362.994 185.652L425.821 294.47Z" fill="#778DA9"/>
<path d="M205.159 347.275L202.092 349.046L202.517 349.782L205.584 348.011L205.159 347.275Z" fill="#778DA9"/>
<path d="M211.376 346.802L208.309 348.573L208.731 349.304L211.798 347.533L211.376 346.802Z" fill="#778DA9"/>
<path d="M234.762 330.184L231.695 331.955L232.12 332.691L235.188 330.92L234.762 330.184Z" fill="#778DA9"/>
<path d="M236.112 332.52L233.045 334.291L233.467 335.022L236.534 333.251L236.112 332.52Z" fill="#778DA9"/>
<path d="M262.501 314.17L259.434 315.94L259.859 316.677L262.926 314.906L262.501 314.17Z" fill="#778DA9"/>
<path d="M270.182 312.849L267.115 314.62L267.537 315.351L270.604 313.58L270.182 312.849Z" fill="#778DA9"/>
<path d="M295.038 295.384L291.971 297.155L292.396 297.891L295.463 296.121L295.038 295.384Z" fill="#778DA9"/>
<path d="M299.786 295.758L296.719 297.529L297.141 298.26L300.208 296.489L299.786 295.758Z" fill="#778DA9"/>
<path d="M321.714 279.984L318.646 281.755L319.071 282.491L322.139 280.72L321.714 279.984Z" fill="#778DA9"/>
<path d="M329.196 278.778L326.129 280.549L326.551 281.28L329.618 279.509L329.196 278.778Z" fill="#778DA9"/>
<path d="M351.317 262.892L348.25 264.663L348.675 265.399L351.742 263.628L351.317 262.892Z" fill="#778DA9"/>
<path d="M359.198 261.457L356.131 263.228L356.553 263.959L359.62 262.188L359.198 261.457Z" fill="#778DA9"/>
<path d="M393.52 238.526L391.986 239.411L393.757 242.478L395.291 241.593L393.52 238.526Z" fill="#778DA9"/>
<path d="M227.811 375.271L224.744 377.042L225.169 377.778L228.236 376.007L227.811 375.271Z" fill="#778DA9"/>
<path d="M252.548 360.989L249.48 362.76L249.905 363.496L252.973 361.725L252.548 360.989Z" fill="#778DA9"/>
<path d="M270.901 352.437L267.834 354.208L268.719 355.742L271.787 353.971L270.901 352.437Z" fill="#778DA9"/>
<path d="M286.618 341.318L283.551 343.089L283.976 343.825L287.043 342.054L286.618 341.318Z" fill="#778DA9"/>
<path d="M316.221 324.226L313.154 325.997L313.579 326.733L316.646 324.962L316.221 324.226Z" fill="#778DA9"/>
<path d="M329.714 318.482L326.646 320.253L327.532 321.787L330.599 320.016L329.714 318.482Z" fill="#778DA9"/>
<path d="M345.632 307.247L342.564 309.018L342.989 309.754L346.057 307.983L345.632 307.247Z" fill="#778DA9"/>
<path d="M361.516 300.121L358.449 301.892L359.335 303.425L362.402 301.654L361.516 300.121Z" fill="#778DA9"/>
<path d="M375.634 289.925L372.566 291.696L372.991 292.432L376.059 290.662L375.634 289.925Z" fill="#778DA9"/>
<path d="M411.305 269.33L409.771 270.216L411.542 273.283L413.076 272.398L411.305 269.33Z" fill="#778DA9"/>
<path d="M104.718 327.298L101.65 329.069L118.512 358.274L121.579 356.503L104.718 327.298Z" fill="#778DA9"/>
<path d="M130.856 312.208L127.789 313.979L144.65 343.183L147.718 341.412L130.856 312.208Z" fill="#778DA9"/>
<path d="M160.997 294.806L157.93 296.577L174.791 325.782L177.858 324.011L160.997 294.806Z" fill="#778DA9"/>
<path d="M187.399 279.562L184.332 281.333L201.193 310.538L204.261 308.767L187.399 279.562Z" fill="#778DA9"/>
<path d="M217.274 262.314L214.207 264.085L231.068 293.29L234.136 291.519L217.274 262.314Z" fill="#778DA9"/>
<path d="M244.739 246.457L241.672 248.228L258.533 277.432L261.6 275.661L244.739 246.457Z" fill="#778DA9"/>
<path d="M274.083 229.515L271.016 231.286L287.877 260.491L290.944 258.72L274.083 229.515Z" fill="#778DA9"/>
<path d="M302.352 213.194L299.285 214.965L316.147 244.17L319.214 242.399L302.352 213.194Z" fill="#778DA9"/>
<path d="M332.221 195.949L329.154 197.72L346.016 226.924L349.083 225.154L332.221 195.949Z" fill="#778DA9"/>
<path d="M334.88 234.423L331.812 236.194L348.674 265.399L351.741 263.628L334.88 234.423Z" fill="#778DA9"/>
<path d="M305.276 251.515L302.209 253.286L319.07 282.491L322.138 280.72L305.276 251.515Z" fill="#778DA9"/>
<path d="M278.602 266.916L275.535 268.687L292.397 297.891L295.464 296.12L278.602 266.916Z" fill="#778DA9"/>
<path d="M246.065 285.702L242.998 287.473L259.859 316.677L262.927 314.907L246.065 285.702Z" fill="#778DA9"/>
<path d="M218.327 301.715L215.26 303.486L232.121 332.691L235.188 330.92L218.327 301.715Z" fill="#778DA9"/>
<path d="M188.723 318.807L185.656 320.578L202.518 349.783L205.585 348.012L188.723 318.807Z" fill="#778DA9"/>
<path d="M160.977 334.82L157.91 336.591L174.772 365.796L177.839 364.025L160.977 334.82Z" fill="#778DA9"/>
<path d="M131.374 351.911L128.307 353.682L145.168 382.886L148.235 381.116L131.374 351.911Z" fill="#778DA9"/>
<path d="M153.364 380.295L150.297 382.065L167.158 411.27L170.225 409.499L153.364 380.295Z" fill="#778DA9"/>
<path d="M181.567 364.012L178.5 365.783L195.361 394.988L198.429 393.217L181.567 364.012Z" fill="#778DA9"/>
<path d="M211.376 346.802L208.309 348.573L225.17 377.778L228.237 376.007L211.376 346.802Z" fill="#778DA9"/>
<path d="M236.112 332.52L233.045 334.291L249.906 363.496L252.973 361.725L236.112 332.52Z" fill="#778DA9"/>
<path d="M270.182 312.849L267.115 314.62L283.977 343.825L287.044 342.054L270.182 312.849Z" fill="#778DA9"/>
<path d="M299.786 295.758L296.719 297.529L313.58 326.734L316.647 324.963L299.786 295.758Z" fill="#778DA9"/>
<path d="M329.196 278.778L326.129 280.549L342.99 309.754L346.057 307.983L329.196 278.778Z" fill="#778DA9"/>
<path d="M359.198 261.457L356.131 263.228L372.992 292.432L376.059 290.661L359.198 261.457Z" fill="#778DA9"/>
<path d="M361.516 300.121L358.449 301.892L375.311 331.096L378.378 329.325L361.516 300.121Z" fill="#778DA9"/>
<path d="M329.714 318.482L326.646 320.253L343.508 349.458L346.575 347.687L329.714 318.482Z" fill="#778DA9"/>
<path d="M270.901 352.437L267.834 354.208L284.695 383.413L287.763 381.642L270.901 352.437Z" fill="#778DA9"/>
<path d="M182.085 403.715L179.018 405.486L195.879 434.691L198.946 432.92L182.085 403.715Z" fill="#778DA9"/>
<path d="M446.4 127.982L372.578 170.603C371.84 171.029 371.193 171.597 370.673 172.274C370.154 172.95 369.774 173.722 369.553 174.546C369.332 175.369 369.276 176.228 369.387 177.074C369.499 177.919 369.775 178.734 370.202 179.473L399.202 229.703C400.063 231.194 401.481 232.283 403.145 232.728C404.808 233.174 406.58 232.941 408.072 232.08L481.894 189.459C483.385 188.597 484.473 187.179 484.919 185.516C485.365 183.852 485.132 182.08 484.271 180.589L455.276 130.369C454.85 129.629 454.283 128.98 453.607 128.459C452.93 127.939 452.158 127.556 451.333 127.335C450.509 127.113 449.649 127.056 448.802 127.167C447.956 127.278 447.14 127.555 446.4 127.982ZM428.87 215.982L406.301 229.013C405.623 229.404 404.817 229.51 404.061 229.307C403.305 229.105 402.661 228.61 402.269 227.932L389.118 205.153L414.253 190.641L428.87 215.982ZM412.472 187.58L387.337 202.092L373.264 177.718C372.873 177.04 372.767 176.235 372.97 175.478C373.172 174.722 373.667 174.078 374.345 173.686L396.914 160.656L412.472 187.58ZM453.474 201.777L431.938 214.211L417.31 188.876L438.847 176.442L453.474 201.777ZM437.076 173.375L415.54 185.809L399.986 158.869L421.522 146.435L437.076 173.375ZM481.203 182.36C481.595 183.038 481.701 183.843 481.498 184.599C481.296 185.355 480.801 186 480.123 186.391L456.541 200.006L441.914 174.671L468.052 159.581L481.203 182.36ZM466.287 156.524L440.149 171.614L424.59 144.664L448.171 131.049C448.849 130.658 449.655 130.552 450.411 130.754C451.167 130.957 451.811 131.451 452.203 132.129L466.287 156.524Z" fill="#778DA9"/>
<path d="M460.799 274.365L474.733 298.498L451.765 311.759C451.544 311.887 451.281 311.921 451.035 311.855C450.788 311.789 450.578 311.628 450.451 311.407L437.479 288.94C437.352 288.719 437.317 288.456 437.383 288.21C437.449 287.963 437.61 287.753 437.831 287.625L460.799 274.365Z" fill="#152432"/>
<path d="M489.407 257.849L463.867 272.594L477.801 296.727L503.34 281.982L489.407 257.849Z" fill="#152432"/>
<path d="M516.423 243.361L529.394 265.829C529.522 266.05 529.556 266.312 529.49 266.559C529.424 266.805 529.263 267.015 529.042 267.143L506.406 280.212L492.473 256.078L515.108 243.009C515.329 242.882 515.592 242.847 515.839 242.913C516.085 242.979 516.295 243.14 516.423 243.361Z" fill="#152432"/>
<path d="M471.031 232.184L449.494 244.618L463.431 268.757L484.967 256.323L471.031 232.184Z" fill="#152432"/>
</svg>
