<svg width="600" height="600" viewBox="0 0 600 600" fill="none" xmlns="http://www.w3.org/2000/svg">
<g clip-path="url(#clip0_866_9263)">
<path d="M394.479 466.528L382.53 243.221V243.114C382.804 239.719 380.565 235.929 376.081 232.294C371.403 228.518 364.773 225.176 357.368 222.891C342.499 218.326 329.547 219.282 325.55 224.896L325.089 225.344V225.644L324.855 225.978V226.072L205.363 427.285C202.735 431.727 200.46 436.368 198.559 441.166L198.265 441.473V441.894C196.694 445.925 195.391 450.055 194.362 454.258L158.461 600.422H366.043L391.766 495.432C393.102 489.993 393.974 484.451 394.372 478.865C394.662 474.759 394.698 470.638 394.479 466.528ZM328.391 228.003C328.521 227.566 328.75 227.164 329.059 226.827C329.67 226.213 330.4 225.731 331.204 225.41C333.209 224.535 336.19 224.04 339.785 224.04C345.333 224.131 350.838 225.032 356.125 226.714C363.076 228.852 369.251 231.933 373.501 235.402C375.298 236.749 376.797 238.453 377.905 240.407C378.265 241.069 378.466 241.806 378.493 242.559C378.497 242.608 378.497 242.657 378.493 242.706C378.486 242.933 378.448 243.158 378.38 243.374C378.237 243.814 377.995 244.214 377.671 244.544C376.382 245.947 373.608 246.923 369.866 247.217C364.399 247.692 357.562 246.776 350.605 244.638C337.012 240.461 327.99 233.022 328.237 228.652C328.262 228.43 328.314 228.213 328.391 228.003ZM163.573 596.413L198.232 455.213C199.239 451.124 200.516 447.105 202.054 443.184C203.023 441.239 205.068 438.626 206.619 438.86C207.902 439.054 212.38 441.593 216.216 466.02C221.836 501.861 227.864 508.791 231.366 510.796L210.869 596.413H163.573ZM214.993 596.413L234.313 515.688L235.149 512.193V512.053C235.613 512.132 236.082 512.181 236.552 512.2C237.119 512.219 237.687 512.192 238.25 512.119H238.297C243.99 511.391 251.796 506.325 261.607 497.016C261.747 496.875 261.894 496.735 262.035 496.608L262.155 496.488L262.756 495.92L262.917 495.766L263.973 494.737L265.223 493.501L266.746 491.963L266.913 491.796L267.655 491.028C268.493 490.168 269.339 489.277 270.195 488.355C278.214 479.814 285.693 476.265 292.429 477.829C303.122 480.302 309.838 495.138 311.529 500.645C311.937 501.981 312.458 504.374 313.053 507.154C316.121 521.382 319.689 535.53 326.513 538.805L313.334 596.393L214.993 596.413ZM387.876 494.476L362.902 596.413H317.457L330.516 539.36C337.259 538.504 344.216 532.857 359.834 509.841L359.881 509.767C376.435 483.082 385.277 479.586 388.311 479.326C388.976 479.247 389.65 479.348 390.262 479.62C389.861 484.627 389.063 489.595 387.876 494.476ZM390.55 475.496C389.84 475.333 389.111 475.27 388.384 475.309C380.331 475.67 369.612 486.543 356.533 507.622C341.035 530.464 334.659 535.216 329.059 535.463C328.828 535.417 328.604 535.343 328.391 535.243C322.723 532.697 319.034 515.548 317.029 506.332C316.361 503.338 315.873 500.986 315.419 499.489C315.352 499.268 308.468 477.434 293.365 473.946C290.183 473.22 286.867 473.342 283.748 474.3L283.273 474.447L282.605 474.668L281.937 474.922C278.676 476.239 275.645 478.064 272.955 480.328C272.594 480.622 272.233 480.923 271.879 481.23C271.525 481.538 271.211 481.825 270.85 482.139C270.382 482.567 269.914 483.008 269.44 483.476C268.731 484.167 268.023 484.888 267.314 485.641C266.125 486.911 264.975 488.107 263.859 489.243C263.391 489.718 262.937 490.186 262.482 490.634C248.515 504.668 241.224 507.816 237.688 508.183H237.635C237.339 508.199 237.042 508.199 236.746 508.183C236.222 508.165 235.701 508.084 235.196 507.943L234.942 507.869L234.601 507.742L233.231 507.074C232.943 506.877 232.674 506.653 232.429 506.405C231.077 504.978 229.993 503.318 229.228 501.507C225.933 494.556 222.899 482.367 220.212 465.271C216.102 439.074 210.856 435.318 207.267 434.77C206.792 434.71 206.312 434.71 205.837 434.77C206.773 432.912 207.773 431.088 208.838 429.297L325.377 232.956C328.411 238.776 337.406 244.785 349.469 248.494C355.139 250.299 361.042 251.267 366.992 251.367C368.121 251.367 369.211 251.321 370.253 251.234C373.046 251.076 375.776 250.344 378.273 249.082C378.453 248.981 378.62 248.881 378.787 248.774L390.449 466.742C390.543 468.439 390.583 470.137 390.583 471.834C390.603 473.057 390.576 474.253 390.53 475.496H390.55Z" fill="#778DA9"/>
<path d="M326.545 538.826L313.367 596.414H214.992L234.313 515.689L235.148 512.194V512.054C235.612 512.133 236.081 512.183 236.552 512.201C237.119 512.22 237.686 512.193 238.249 512.121H238.296C243.99 511.392 251.796 506.326 261.606 497.017C261.707 496.93 261.814 496.83 261.914 496.73L262.034 496.609L262.154 496.489L262.756 495.921L262.916 495.767L263.972 494.738C264.387 494.33 264.801 493.929 265.222 493.502C265.643 493.074 266.238 492.486 266.746 491.965L266.913 491.797L267.655 491.029C268.492 490.169 269.339 489.278 270.194 488.356C278.214 479.815 285.692 476.266 292.429 477.83C303.121 480.303 309.838 495.139 311.529 500.646C311.936 501.982 312.458 504.375 313.052 507.155C316.18 521.403 319.722 535.551 326.545 538.826Z" fill="#AFC7DD"/>
<path d="M390.282 479.599C389.874 484.607 389.07 489.575 387.876 494.456L362.902 596.412H317.457L330.516 539.359C337.259 538.504 344.216 532.857 359.834 509.84L359.881 509.767C376.435 483.081 385.277 479.586 388.311 479.325C388.98 479.236 389.662 479.331 390.282 479.599Z" fill="#152432"/>
<path d="M231.378 510.73L210.868 596.413H163.572L198.231 455.214C199.238 451.124 200.515 447.105 202.053 443.184C203.022 441.24 205.067 438.626 206.618 438.86C207.901 439.054 212.379 441.594 216.215 466.02C221.848 501.801 227.876 508.765 231.378 510.73Z" fill="#152432"/>
<path d="M390.604 471.835C390.604 473.058 390.604 474.281 390.531 475.497C389.822 475.333 389.093 475.27 388.366 475.31C380.313 475.671 369.593 486.544 356.514 507.622C341.016 530.465 334.641 535.217 329.04 535.464C328.809 535.418 328.585 535.344 328.372 535.243C322.705 532.697 319.016 515.548 317.011 506.332C316.342 503.338 315.855 500.986 315.4 499.489C315.333 499.269 308.45 477.435 293.346 473.946C290.165 473.221 286.849 473.343 283.729 474.301L283.255 474.448L282.586 474.668L281.918 474.922C278.658 476.239 275.626 478.064 272.936 480.329C272.575 480.623 272.214 480.924 271.86 481.231C271.506 481.538 271.192 481.826 270.831 482.14C270.363 482.568 269.895 483.009 269.421 483.476C268.712 484.167 268.004 484.889 267.296 485.642C266.106 486.912 264.957 488.108 263.841 489.244C263.373 489.718 262.918 490.186 262.464 490.634C248.496 504.668 241.205 507.816 237.67 508.184H237.616C237.32 508.2 237.023 508.2 236.727 508.184C236.203 508.165 235.682 508.084 235.177 507.943L234.923 507.87L234.582 507.743L233.212 507.074C232.924 506.877 232.656 506.654 232.41 506.406C231.058 504.978 229.974 503.319 229.209 501.507C225.914 494.557 222.88 482.367 220.194 465.272C216.084 439.074 210.837 435.319 207.249 434.77C206.774 434.711 206.293 434.711 205.818 434.77C206.754 432.913 207.754 431.088 208.819 429.297L325.378 232.956C328.412 238.777 337.407 244.785 349.47 248.494C355.14 250.299 361.044 251.267 366.993 251.368C368.123 251.368 369.212 251.321 370.255 251.234C373.047 251.077 375.778 250.344 378.274 249.082C378.455 248.982 378.622 248.882 378.789 248.775L390.451 466.742C390.564 468.44 390.604 470.137 390.604 471.835Z" fill="#152432"/>
<path d="M262.188 496.503L262.068 496.623L261.947 496.743C262.228 496.483 262.509 496.215 262.789 495.935L262.188 496.503Z" fill="#AFC7DD"/>
<path d="M378.541 242.547C378.544 242.596 378.544 242.645 378.541 242.694C378.533 242.92 378.495 243.145 378.427 243.362C378.284 243.801 378.042 244.201 377.719 244.531C376.429 245.935 373.655 246.911 369.913 247.205C364.446 247.679 357.609 246.764 350.652 244.625C337.059 240.448 328.037 233.01 328.284 228.639C328.295 228.413 328.333 228.188 328.398 227.971C328.529 227.533 328.757 227.131 329.066 226.795C329.677 226.181 330.407 225.699 331.211 225.378C333.216 224.502 336.197 224.008 339.792 224.008C345.34 224.099 350.845 224.999 356.132 226.681C363.083 228.82 369.258 231.9 373.508 235.369C375.305 236.717 376.805 238.421 377.913 240.375C378.289 241.039 378.504 241.783 378.541 242.547Z" fill="#778DA9"/>
<path d="M390.643 191.829C390.668 192.428 390.54 193.025 390.27 193.56C390 194.096 389.596 194.554 389.099 194.89C384.842 197.603 374.77 197.777 364.599 195.311C353.044 192.504 345.525 187.605 343.213 183.996C342.86 183.425 342.674 182.766 342.674 182.095C342.674 181.423 342.86 180.765 343.213 180.193L388.317 105.544L390.656 191.167L390.643 191.829Z" fill="#152432"/>
<path d="M392.161 100.492C392.146 99.9393 391.953 99.4065 391.611 98.9729C391.268 98.5394 390.795 98.2283 390.261 98.0861C389.727 97.944 389.161 97.9785 388.649 98.1844C388.136 98.3903 387.703 98.7566 387.416 99.2285L339.746 178.088C339.01 179.305 338.627 180.704 338.641 182.126C338.655 183.549 339.066 184.939 339.826 186.141C343.168 191.368 352.524 196.487 363.651 199.18C368.427 200.368 373.326 200.993 378.247 201.045C383.734 201.045 388.345 200.102 391.252 198.244C392.333 197.536 393.213 196.561 393.807 195.414C394.402 194.267 394.691 192.986 394.647 191.695L392.161 100.492ZM389.1 194.903C384.843 197.616 374.772 197.79 364.6 195.324C353.045 192.517 345.527 187.618 343.215 184.01C342.862 183.438 342.675 182.78 342.675 182.108C342.675 181.437 342.862 180.778 343.215 180.207L388.318 105.557L390.657 191.18V191.849C390.681 192.448 390.55 193.044 390.277 193.579C390.005 194.114 389.599 194.57 389.1 194.903Z" fill="#778DA9"/>
</g>
<defs>
<clipPath id="clip0_866_9263">
<rect width="600" height="600" fill="white"/>
</clipPath>
</defs>
</svg>
